<svg width="364" height="47" viewBox="0 0 364 47" fill="none" xmlns="http://www.w3.org/2000/svg">
<g clip-path="url(#clip0_279_1343)">
<path fill-rule="evenodd" clip-rule="evenodd" d="M24.1651 25.6907V44.9396H19.4822C18.0659 44.9396 16.9195 43.7907 16.9195 42.3769V32.4897H3.72652C1.43112 32.4897 -0.00588888 30.0058 1.14306 28.0176L14.0006 5.72524C15.0657 3.88228 16.9211 2.66194 18.999 2.38965V12.0204L11.1224 25.6907H24.1651Z" fill="url(#paint0_linear_279_1343)"/>
<path d="M18.9991 5.32251L18.9949 5.32417L4.75513 28.9481H20.2202V44.9395H24.1652V25.6906H11.1225L18.9991 12.0203V5.32251Z" fill="url(#paint1_linear_279_1343)"/>
<path fill-rule="evenodd" clip-rule="evenodd" d="M18.9949 21.6386V2.38965H23.6778C25.0941 2.38965 26.2405 3.53859 26.2405 4.95236V14.8396H39.4335C41.7289 14.8396 43.1659 17.3234 42.017 19.3117L29.1602 41.6032C28.0951 43.4462 26.2389 44.6665 24.1618 44.9388V35.3081L32.0384 21.6378L18.9949 21.6386Z" fill="url(#paint2_linear_279_1343)"/>
<path d="M24.161 42.0067L24.1651 42.005L38.4041 18.3811H22.9398V2.38965H18.9949V21.6386H32.0376L24.161 35.3089V42.0067Z" fill="url(#paint3_linear_279_1343)"/>
</g>
<path d="M56.8524 36.6646V15.4245H48.7524V10.0246H71.2164V15.4245H63.1164V36.6646H56.8524ZM72.1288 36.6646V17.5845H78.2128V20.4646H78.4288C78.6208 19.9606 78.8968 19.4686 79.2568 18.9885C79.6408 18.4845 80.1688 18.0645 80.8408 17.7285C81.5128 17.3925 82.4008 17.2246 83.5048 17.2246C84.0328 17.2246 84.4528 17.2606 84.7648 17.3326C85.0768 17.4045 85.2328 17.4405 85.2328 17.4405V23.5246C85.2328 23.5246 85.0648 23.4886 84.7288 23.4165C84.3928 23.3445 83.9248 23.3086 83.3248 23.3086C81.6208 23.3086 80.3488 23.7646 79.5088 24.6766C78.6928 25.5886 78.2848 27.0766 78.2848 29.1406V36.6646H72.1288ZM94.8009 17.2246C96.0489 17.2246 97.0569 17.4286 97.8249 17.8366C98.6169 18.2445 99.2049 18.6645 99.5889 19.0965C99.9969 19.5045 100.225 19.7566 100.273 19.8526H100.561V17.5845H106.717V36.6646H100.561V34.3966H100.273C100.225 34.4926 99.9969 34.7566 99.5889 35.1886C99.2049 35.6206 98.6169 36.0406 97.8249 36.4486C97.0569 36.8326 96.0489 37.0246 94.8009 37.0246C93.4089 37.0246 92.1969 36.7486 91.1649 36.1966C90.1329 35.6206 89.2689 34.8646 88.5729 33.9286C87.8769 32.9686 87.3609 31.9006 87.0249 30.7246C86.6889 29.5486 86.5209 28.3486 86.5209 27.1246C86.5209 25.9006 86.6889 24.7006 87.0249 23.5246C87.3609 22.3485 87.8769 21.2925 88.5729 20.3566C89.2689 19.3965 90.1329 18.6405 91.1649 18.0885C92.1969 17.5125 93.4089 17.2246 94.8009 17.2246ZM96.7449 22.1565C95.8569 22.1565 95.1129 22.4085 94.5129 22.9125C93.9129 23.3925 93.4689 24.0166 93.1809 24.7846C92.8929 25.5286 92.7489 26.3086 92.7489 27.1246C92.7489 27.9406 92.8929 28.7326 93.1809 29.5006C93.4689 30.2446 93.9129 30.8686 94.5129 31.3726C95.1129 31.8526 95.8569 32.0926 96.7449 32.0926C97.6329 32.0926 98.3649 31.8526 98.9409 31.3726C99.5409 30.8686 99.9849 30.2446 100.273 29.5006C100.585 28.7326 100.741 27.9406 100.741 27.1246C100.741 26.3086 100.585 25.5286 100.273 24.7846C99.9849 24.0166 99.5409 23.3925 98.9409 22.9125C98.3649 22.4085 97.6329 22.1565 96.7449 22.1565ZM118.233 37.0246C116.841 37.0246 115.629 36.7486 114.597 36.1966C113.565 35.6206 112.701 34.8646 112.005 33.9286C111.309 32.9686 110.793 31.9006 110.457 30.7246C110.121 29.5486 109.953 28.3486 109.953 27.1246C109.953 25.9006 110.121 24.7006 110.457 23.5246C110.793 22.3485 111.309 21.2925 112.005 20.3566C112.701 19.3965 113.565 18.6405 114.597 18.0885C115.629 17.5125 116.841 17.2246 118.233 17.2246C119.481 17.2246 120.489 17.4286 121.257 17.8366C122.049 18.2445 122.637 18.6645 123.021 19.0965C123.429 19.5045 123.657 19.7566 123.705 19.8526H123.993V9.30455H130.149V36.6646H123.993V34.3966H123.705C123.657 34.4926 123.429 34.7566 123.021 35.1886C122.637 35.6206 122.049 36.0406 121.257 36.4486C120.489 36.8326 119.481 37.0246 118.233 37.0246ZM120.177 32.0926C121.065 32.0926 121.797 31.8526 122.373 31.3726C122.973 30.8686 123.417 30.2446 123.705 29.5006C124.017 28.7326 124.173 27.9406 124.173 27.1246C124.173 26.3086 124.017 25.5286 123.705 24.7846C123.417 24.0166 122.973 23.3925 122.373 22.9125C121.797 22.4085 121.065 22.1565 120.177 22.1565C119.289 22.1565 118.545 22.4085 117.945 22.9125C117.345 23.3925 116.901 24.0166 116.613 24.7846C116.325 25.5286 116.181 26.3086 116.181 27.1246C116.181 27.9406 116.325 28.7326 116.613 29.5006C116.901 30.2446 117.345 30.8686 117.945 31.3726C118.545 31.8526 119.289 32.0926 120.177 32.0926ZM143.147 37.0246C141.443 37.0246 139.967 36.7486 138.719 36.1966C137.471 35.6206 136.427 34.8646 135.587 33.9286C134.771 32.9686 134.159 31.9006 133.751 30.7246C133.367 29.5486 133.175 28.3366 133.175 27.0886C133.175 25.8886 133.367 24.7006 133.751 23.5246C134.135 22.3485 134.723 21.2925 135.515 20.3566C136.307 19.3965 137.315 18.6405 138.539 18.0885C139.787 17.5125 141.263 17.2246 142.967 17.2246C144.791 17.2246 146.387 17.6205 147.755 18.4125C149.147 19.1805 150.227 20.3205 150.995 21.8325C151.787 23.3205 152.183 25.1326 152.183 27.2686V28.7086H139.367C139.439 29.6926 139.787 30.5566 140.411 31.3006C141.059 32.0206 141.971 32.3806 143.147 32.3806C144.035 32.3806 144.707 32.2246 145.163 31.9126C145.643 31.5766 145.967 31.2406 146.135 30.9046C146.303 30.5686 146.387 30.4006 146.387 30.4006H152.039C152.039 30.4006 151.979 30.6286 151.859 31.0846C151.739 31.5166 151.511 32.0686 151.175 32.7406C150.839 33.3886 150.347 34.0486 149.699 34.7206C149.051 35.3686 148.187 35.9206 147.107 36.3766C146.051 36.8086 144.731 37.0246 143.147 37.0246ZM139.331 25.1445H146.279C146.231 24.0166 145.883 23.1646 145.235 22.5885C144.611 22.0125 143.819 21.7246 142.859 21.7246C141.923 21.7246 141.119 22.0125 140.447 22.5885C139.799 23.1646 139.427 24.0166 139.331 25.1445ZM165.792 37.0246C163.992 37.0246 162.456 36.8206 161.184 36.4126C159.936 35.9806 158.892 35.4286 158.052 34.7566C157.236 34.0846 156.576 33.3766 156.072 32.6326C155.592 31.8886 155.232 31.1806 154.992 30.5086C154.776 29.8366 154.632 29.2966 154.56 28.8886C154.488 28.4566 154.452 28.2406 154.452 28.2406H160.752C160.752 28.2406 160.8 28.4326 160.896 28.8166C160.992 29.1766 161.208 29.5966 161.544 30.0766C161.904 30.5566 162.432 30.9886 163.128 31.3726C163.848 31.7326 164.808 31.9126 166.008 31.9126C167.496 31.9126 168.564 31.6126 169.212 31.0126C169.884 30.4126 170.22 29.7286 170.22 28.9606C170.22 28.2646 169.968 27.7126 169.464 27.3046C168.984 26.8966 168.192 26.5846 167.088 26.3686L163.524 25.7566C162.036 25.4926 160.632 25.0726 159.312 24.4965C158.016 23.9205 156.96 23.1046 156.144 22.0486C155.352 20.9926 154.956 19.6245 154.956 17.9445C154.956 16.2885 155.364 14.8485 156.18 13.6245C157.02 12.3765 158.208 11.4045 159.744 10.7086C161.28 10.0125 163.092 9.66455 165.18 9.66455C166.812 9.66455 168.204 9.86855 169.356 10.2765C170.508 10.6606 171.468 11.1646 172.236 11.7885C173.004 12.3886 173.616 13.0366 174.072 13.7325C174.552 14.4045 174.9 15.0526 175.116 15.6766C175.356 16.3005 175.512 16.8045 175.584 17.1886C175.656 17.5725 175.692 17.7645 175.692 17.7645H169.536C169.536 17.7645 169.488 17.6205 169.392 17.3326C169.32 17.0206 169.128 16.6725 168.816 16.2885C168.528 15.8806 168.084 15.5206 167.484 15.2086C166.884 14.8965 166.068 14.7405 165.036 14.7405C163.596 14.7405 162.576 15.0526 161.976 15.6766C161.376 16.2766 161.076 16.9125 161.076 17.5845C161.076 18.3286 161.4 18.8926 162.048 19.2766C162.72 19.6606 163.56 19.9486 164.568 20.1406L168.348 20.7886C169.812 21.0526 171.156 21.4966 172.38 22.1206C173.604 22.7446 174.588 23.5846 175.332 24.6406C176.076 25.6966 176.448 27.0046 176.448 28.5646C176.448 30.1726 176.028 31.6246 175.188 32.9206C174.372 34.1926 173.172 35.2006 171.588 35.9446C170.004 36.6646 168.072 37.0246 165.792 37.0246ZM188.679 37.0246C186.951 37.0246 185.451 36.7486 184.179 36.1966C182.931 35.6206 181.887 34.8646 181.047 33.9286C180.207 32.9926 179.583 31.9366 179.175 30.7606C178.767 29.5846 178.563 28.3726 178.563 27.1246C178.563 25.8766 178.767 24.6646 179.175 23.4885C179.583 22.3125 180.207 21.2565 181.047 20.3205C181.887 19.3845 182.931 18.6405 184.179 18.0885C185.451 17.5125 186.951 17.2246 188.679 17.2246C190.431 17.2246 191.871 17.4765 192.999 17.9805C194.151 18.4845 195.063 19.1086 195.735 19.8526C196.407 20.5966 196.899 21.3405 197.211 22.0845C197.523 22.8286 197.727 23.4526 197.823 23.9566C197.919 24.4606 197.967 24.7126 197.967 24.7126H192.243C192.243 24.7126 192.207 24.5806 192.135 24.3165C192.063 24.0526 191.907 23.7406 191.667 23.3806C191.451 23.0206 191.115 22.7086 190.659 22.4446C190.203 22.1806 189.603 22.0486 188.859 22.0486C187.467 22.0486 186.423 22.5526 185.727 23.5605C185.055 24.5446 184.719 25.7326 184.719 27.1246C184.719 28.5166 185.055 29.7166 185.727 30.7246C186.423 31.7086 187.467 32.2006 188.859 32.2006C189.603 32.2006 190.203 32.0686 190.659 31.8046C191.115 31.5406 191.451 31.2286 191.667 30.8686C191.907 30.5086 192.063 30.1966 192.135 29.9326C192.207 29.6686 192.243 29.5366 192.243 29.5366H197.967C197.967 29.5366 197.919 29.7886 197.823 30.2926C197.727 30.7966 197.523 31.4206 197.211 32.1646C196.899 32.9086 196.407 33.6526 195.735 34.3966C195.063 35.1406 194.151 35.7646 192.999 36.2686C191.871 36.7726 190.431 37.0246 188.679 37.0246ZM208.693 17.2246C209.941 17.2246 210.949 17.4286 211.717 17.8366C212.509 18.2445 213.097 18.6645 213.481 19.0965C213.889 19.5045 214.117 19.7566 214.165 19.8526H214.453V17.5845H220.609V36.6646H214.453V34.3966H214.165C214.117 34.4926 213.889 34.7566 213.481 35.1886C213.097 35.6206 212.509 36.0406 211.717 36.4486C210.949 36.8326 209.941 37.0246 208.693 37.0246C207.301 37.0246 206.089 36.7486 205.057 36.1966C204.025 35.6206 203.161 34.8646 202.465 33.9286C201.769 32.9686 201.253 31.9006 200.917 30.7246C200.581 29.5486 200.413 28.3486 200.413 27.1246C200.413 25.9006 200.581 24.7006 200.917 23.5246C201.253 22.3485 201.769 21.2925 202.465 20.3566C203.161 19.3965 204.025 18.6405 205.057 18.0885C206.089 17.5125 207.301 17.2246 208.693 17.2246ZM210.637 22.1565C209.749 22.1565 209.005 22.4085 208.405 22.9125C207.805 23.3925 207.361 24.0166 207.073 24.7846C206.785 25.5286 206.641 26.3086 206.641 27.1246C206.641 27.9406 206.785 28.7326 207.073 29.5006C207.361 30.2446 207.805 30.8686 208.405 31.3726C209.005 31.8526 209.749 32.0926 210.637 32.0926C211.525 32.0926 212.257 31.8526 212.833 31.3726C213.433 30.8686 213.877 30.2446 214.165 29.5006C214.477 28.7326 214.633 27.9406 214.633 27.1246C214.633 26.3086 214.477 25.5286 214.165 24.7846C213.877 24.0166 213.433 23.3925 212.833 22.9125C212.257 22.4085 211.525 22.1565 210.637 22.1565ZM223.921 36.6646V17.5845H230.077V20.2846H230.257C230.497 19.9006 230.821 19.4686 231.229 18.9885C231.661 18.5085 232.225 18.1005 232.921 17.7645C233.641 17.4045 234.529 17.2246 235.585 17.2246C237.121 17.2246 238.345 17.5725 239.257 18.2685C240.193 18.9645 240.865 19.8526 241.273 20.9326C241.681 21.9886 241.885 23.0806 241.885 24.2086V36.6646H235.729V25.3606C235.729 24.5446 235.513 23.8246 235.081 23.2006C234.649 22.5526 233.941 22.2285 232.957 22.2285C231.877 22.2285 231.121 22.5885 230.689 23.3086C230.281 24.0046 230.077 24.7726 230.077 25.6126V36.6646H223.921ZM245.068 36.6646V17.5845H251.224V20.2846H251.404C251.644 19.9006 251.968 19.4686 252.376 18.9885C252.808 18.5085 253.372 18.1005 254.068 17.7645C254.788 17.4045 255.676 17.2246 256.732 17.2246C258.268 17.2246 259.492 17.5725 260.404 18.2685C261.34 18.9645 262.012 19.8526 262.42 20.9326C262.828 21.9886 263.032 23.0806 263.032 24.2086V36.6646H256.876V25.3606C256.876 24.5446 256.66 23.8246 256.228 23.2006C255.796 22.5526 255.088 22.2285 254.104 22.2285C253.024 22.2285 252.268 22.5885 251.836 23.3086C251.428 24.0046 251.224 24.7726 251.224 25.6126V36.6646H245.068ZM275.69 37.0246C273.986 37.0246 272.51 36.7486 271.262 36.1966C270.014 35.6206 268.97 34.8646 268.13 33.9286C267.314 32.9686 266.702 31.9006 266.294 30.7246C265.91 29.5486 265.718 28.3366 265.718 27.0886C265.718 25.8886 265.91 24.7006 266.294 23.5246C266.678 22.3485 267.266 21.2925 268.058 20.3566C268.85 19.3965 269.858 18.6405 271.082 18.0885C272.33 17.5125 273.806 17.2246 275.51 17.2246C277.334 17.2246 278.93 17.6205 280.298 18.4125C281.69 19.1805 282.77 20.3205 283.538 21.8325C284.33 23.3205 284.726 25.1326 284.726 27.2686V28.7086H271.91C271.982 29.6926 272.33 30.5566 272.954 31.3006C273.602 32.0206 274.514 32.3806 275.69 32.3806C276.578 32.3806 277.25 32.2246 277.706 31.9126C278.186 31.5766 278.51 31.2406 278.678 30.9046C278.846 30.5686 278.93 30.4006 278.93 30.4006H284.582C284.582 30.4006 284.522 30.6286 284.402 31.0846C284.282 31.5166 284.054 32.0686 283.718 32.7406C283.382 33.3886 282.89 34.0486 282.242 34.7206C281.594 35.3686 280.73 35.9206 279.65 36.3766C278.594 36.8086 277.274 37.0246 275.69 37.0246ZM271.874 25.1445H278.822C278.774 24.0166 278.426 23.1646 277.778 22.5885C277.154 22.0125 276.362 21.7246 275.402 21.7246C274.466 21.7246 273.662 22.0125 272.99 22.5885C272.342 23.1646 271.97 24.0166 271.874 25.1445ZM287.679 36.6646V17.5845H293.763V20.4646H293.979C294.171 19.9606 294.447 19.4686 294.807 18.9885C295.191 18.4845 295.719 18.0645 296.391 17.7285C297.063 17.3925 297.951 17.2246 299.055 17.2246C299.583 17.2246 300.003 17.2606 300.315 17.3326C300.627 17.4045 300.783 17.4405 300.783 17.4405V23.5246C300.783 23.5246 300.615 23.4886 300.279 23.4165C299.943 23.3445 299.475 23.3086 298.875 23.3086C297.171 23.3086 295.899 23.7646 295.059 24.6766C294.243 25.5886 293.835 27.0766 293.835 29.1406V36.6646H287.679ZM303.209 36.6646V10.0246H314.693C316.925 10.0246 318.785 10.4565 320.273 11.3205C321.761 12.1845 322.865 13.3005 323.585 14.6686C324.329 16.0366 324.701 17.4646 324.701 18.9526C324.701 20.4646 324.329 21.9046 323.585 23.2726C322.865 24.6406 321.761 25.7685 320.273 26.6565C318.785 27.5206 316.925 27.9526 314.693 27.9526H309.437V36.6646H303.209ZM314.657 15.4605H309.437V22.5526H314.657C315.929 22.5526 316.877 22.1806 317.501 21.4366C318.125 20.6926 318.437 19.8765 318.437 18.9885C318.437 18.1006 318.125 17.2966 317.501 16.5765C316.877 15.8325 315.929 15.4605 314.657 15.4605ZM326.985 36.6646V17.5845H333.069V20.4646H333.285C333.477 19.9606 333.753 19.4686 334.113 18.9885C334.497 18.4845 335.025 18.0645 335.697 17.7285C336.369 17.3925 337.257 17.2246 338.361 17.2246C338.889 17.2246 339.309 17.2606 339.621 17.3326C339.933 17.4045 340.089 17.4405 340.089 17.4405V23.5246C340.089 23.5246 339.921 23.4886 339.585 23.4165C339.249 23.3445 338.781 23.3086 338.181 23.3086C336.477 23.3086 335.205 23.7646 334.365 24.6766C333.549 25.5886 333.141 27.0766 333.141 29.1406V36.6646H326.985ZM351.565 37.0246C349.405 37.0246 347.569 36.5686 346.057 35.6566C344.545 34.7446 343.381 33.5326 342.565 32.0206C341.773 30.5086 341.377 28.8766 341.377 27.1246C341.377 25.3725 341.773 23.7405 342.565 22.2285C343.381 20.7166 344.545 19.5045 346.057 18.5925C347.569 17.6805 349.405 17.2246 351.565 17.2246C353.749 17.2246 355.597 17.6805 357.109 18.5925C358.621 19.5045 359.773 20.7166 360.565 22.2285C361.381 23.7405 361.789 25.3725 361.789 27.1246C361.789 28.8766 361.381 30.5086 360.565 32.0206C359.773 33.5326 358.621 34.7446 357.109 35.6566C355.597 36.5686 353.749 37.0246 351.565 37.0246ZM351.565 32.0566C352.837 32.0566 353.821 31.5766 354.517 30.6166C355.237 29.6326 355.597 28.4686 355.597 27.1246C355.597 25.7806 355.237 24.6286 354.517 23.6685C353.821 22.6846 352.837 22.1926 351.565 22.1926C350.317 22.1926 349.333 22.6846 348.613 23.6685C347.893 24.6286 347.533 25.7806 347.533 27.1246C347.533 28.4686 347.893 29.6326 348.613 30.6166C349.333 31.5766 350.317 32.0566 351.565 32.0566Z" fill="#001D34"/>
<defs>
<linearGradient id="paint0_linear_279_1343" x1="6.4559" y1="43.9859" x2="29.9685" y2="10.2586" gradientUnits="userSpaceOnUse">
<stop stop-color="#8A6EFF"/>
<stop offset="0.06" stop-color="#52B4FF"/>
<stop offset="0.28" stop-color="#8A6EFF"/>
<stop offset="0.5" stop-color="#174DBA"/>
<stop offset="0.86" stop-color="#7023FF"/>
<stop offset="1" stop-color="#427DFF"/>
</linearGradient>
<linearGradient id="paint1_linear_279_1343" x1="17.263" y1="5.83658" x2="8.86751" y2="43.1569" gradientUnits="userSpaceOnUse">
<stop stop-color="#1E69FF"/>
<stop offset="1" stop-color="#8FDAFF"/>
</linearGradient>
<linearGradient id="paint2_linear_279_1343" x1="24.712" y1="43.9851" x2="48.2239" y2="10.258" gradientUnits="userSpaceOnUse">
<stop stop-color="#427DFF"/>
<stop offset="0.14" stop-color="#7023FF"/>
<stop offset="0.5" stop-color="#174DBA"/>
<stop offset="0.72" stop-color="#8A6EFF"/>
<stop offset="0.94" stop-color="#52B4FF"/>
<stop offset="1" stop-color="#8A6EFF"/>
</linearGradient>
<linearGradient id="paint3_linear_279_1343" x1="31.5022" y1="2.90372" x2="23.1064" y2="40.2239" gradientUnits="userSpaceOnUse">
<stop stop-color="#8FDAFF"/>
<stop offset="1" stop-color="#1E69FF"/>
</linearGradient>
<clipPath id="clip0_279_1343">
<rect width="41.6817" height="42.55" fill="white" transform="translate(0.73877 2.38965)"/>
</clipPath>
</defs>
</svg>
