<svg width="283" height="48" viewBox="0 0 283 48" fill="none" xmlns="http://www.w3.org/2000/svg">
<path d="M57.7364 18.2644H74.2841V21.5564H67.9913V38.6577H64.0583V21.5564H57.7364V18.2644ZM76.4623 24.091H79.8418L80.104 25.9556C80.5118 25.4506 80.9682 25.0427 81.4732 24.732C81.9976 24.4018 82.5706 24.1784 83.1921 24.0619C83.8136 23.926 84.4642 23.9357 85.144 24.091V27.587C84.6196 27.4122 84.0661 27.3637 83.4834 27.4414C82.9202 27.5191 82.3861 27.723 81.8811 28.0532C81.3955 28.3834 80.9877 28.8592 80.6575 29.4807C80.3467 30.0828 80.1914 30.85 80.1914 31.7822V38.6577H76.4623V24.091ZM95.5121 38.6577L95.2207 36.8806C94.7352 37.4827 94.1817 37.9585 93.5601 38.3081C92.9581 38.6577 92.1423 38.8325 91.1129 38.8325C90.1418 38.8325 89.2873 38.6674 88.5492 38.3372C87.8306 37.9876 87.2673 37.5118 86.8595 36.9097C86.4516 36.2882 86.2477 35.5599 86.2477 34.7247C86.2477 33.5011 86.6847 32.4912 87.5587 31.6948C88.4521 30.8791 89.7922 30.3644 91.5791 30.1508L95.2207 29.7429V28.7232C95.2207 28.3154 95.0362 27.9366 94.6672 27.587C94.2982 27.2374 93.7155 27.0626 92.9192 27.0626C92.22 27.0626 91.6082 27.2374 91.0838 27.587C90.5788 27.9172 90.2389 28.4222 90.0641 29.102L86.8595 27.9366C87.2479 26.6354 87.986 25.6351 89.0736 24.9359C90.1613 24.2367 91.5014 23.8871 93.094 23.8871C95.0362 23.8871 96.4929 24.3727 97.464 25.3438C98.4545 26.2955 98.9498 27.5579 98.9498 29.1311V38.6577H95.5121ZM95.2207 32.3358L92.0743 32.7436C91.4334 32.8213 90.9479 33.0156 90.6177 33.3263C90.2875 33.6176 90.1224 33.977 90.1224 34.4042C90.1224 34.8121 90.2875 35.1617 90.6177 35.453C90.9479 35.725 91.414 35.8609 92.0161 35.8609C92.6959 35.8609 93.2688 35.7347 93.7349 35.4822C94.2205 35.2297 94.5895 34.8607 94.842 34.3751C95.0945 33.8896 95.2207 33.2875 95.2207 32.5688V32.3358ZM112.36 26.276L111.894 26.3343V17.6817H115.623V38.6577H112.243L112.01 36.8514C111.544 37.3953 110.923 37.8711 110.146 38.279C109.388 38.6674 108.504 38.8616 107.495 38.8616C106.232 38.8616 105.115 38.5509 104.144 37.9294C103.173 37.3079 102.416 36.4436 101.872 35.3365C101.328 34.21 101.056 32.8893 101.056 31.3744C101.056 29.8594 101.328 28.5387 101.872 27.4122C102.416 26.2858 103.173 25.4215 104.144 24.8194C105.115 24.1979 106.232 23.8871 107.495 23.8871C108.64 23.8871 109.621 24.1202 110.437 24.5863C111.272 25.0524 111.913 25.6157 112.36 26.276ZM105.076 31.3744C105.076 32.598 105.387 33.5885 106.009 34.346C106.63 35.084 107.446 35.453 108.456 35.453C109.077 35.453 109.641 35.2977 110.146 34.9869C110.67 34.6567 111.088 34.1906 111.398 33.5885C111.729 32.9864 111.894 32.2484 111.894 31.3744C111.894 30.5004 111.729 29.7623 111.398 29.1602C111.088 28.5582 110.67 28.1017 110.146 27.791C109.641 27.4608 109.077 27.2957 108.456 27.2957C107.446 27.2957 106.63 27.6744 106.009 28.4319C105.387 29.17 105.076 30.1508 105.076 31.3744ZM125.227 38.8616C123.77 38.8616 122.488 38.5412 121.381 37.9002C120.274 37.2593 119.41 36.3659 118.788 35.22C118.186 34.0741 117.885 32.7534 117.885 31.2578C117.885 29.8206 118.186 28.5484 118.788 27.4414C119.39 26.3343 120.225 25.47 121.294 24.8485C122.381 24.2076 123.615 23.8871 124.994 23.8871C126.392 23.8871 127.625 24.1882 128.694 24.7902C129.762 25.3923 130.587 26.2372 131.17 27.3248C131.772 28.3931 132.073 29.6458 132.073 31.083C132.073 31.2967 132.054 31.5395 132.015 31.8114C131.995 32.0639 131.966 32.3358 131.927 32.6271H121.906C121.983 33.2486 122.177 33.7827 122.488 34.2294C122.818 34.6567 123.217 34.9966 123.683 35.2491C124.168 35.4822 124.712 35.5987 125.314 35.5987C126.033 35.5987 126.674 35.453 127.237 35.1617C127.82 34.851 128.237 34.4528 128.49 33.9672L131.811 34.9578C131.228 36.2008 130.354 37.1622 129.189 37.842C128.043 38.5218 126.722 38.8616 125.227 38.8616ZM127.994 29.9177C127.975 29.3739 127.829 28.8883 127.557 28.461C127.285 28.0143 126.926 27.6744 126.479 27.4414C126.033 27.1889 125.537 27.0626 124.994 27.0626C124.508 27.0626 124.052 27.1889 123.624 27.4414C123.197 27.6939 122.828 28.0338 122.517 28.461C122.226 28.8689 122.032 29.3545 121.935 29.9177H127.994ZM137.363 32.8893C137.46 33.4331 137.674 33.909 138.004 34.3168C138.334 34.7247 138.761 35.0452 139.286 35.2782C139.829 35.4919 140.461 35.5987 141.179 35.5987C142.306 35.5987 143.151 35.3462 143.714 34.8412C144.277 34.3168 144.559 33.6856 144.559 32.9476C144.559 32.3649 144.384 31.8794 144.034 31.4909C143.685 31.1025 143.189 30.7723 142.549 30.5004C141.927 30.2285 141.199 29.9663 140.364 29.7138C139.587 29.4807 138.819 29.2282 138.062 28.9563C137.305 28.6844 136.615 28.3445 135.994 27.9366C135.372 27.5288 134.877 27.0044 134.508 26.3634C134.158 25.7031 133.983 24.8776 133.983 23.8871C133.983 22.6441 134.284 21.5856 134.886 20.7116C135.508 19.8376 136.353 19.1772 137.421 18.7305C138.489 18.2838 139.723 18.0604 141.121 18.0604C142.306 18.0604 143.374 18.2352 144.326 18.5848C145.277 18.915 146.074 19.4103 146.715 20.0706C147.375 20.7116 147.861 21.5079 148.171 22.4596L144.53 23.4501C144.432 23.0228 144.219 22.6538 143.889 22.343C143.558 22.0323 143.16 21.7895 142.694 21.6147C142.228 21.4205 141.723 21.3234 141.179 21.3234C140.597 21.304 140.062 21.3914 139.577 21.5856C139.091 21.7798 138.703 22.0614 138.412 22.4304C138.12 22.7995 137.975 23.2268 137.975 23.7123C137.975 24.2561 138.14 24.6931 138.47 25.0233C138.8 25.3341 139.237 25.606 139.781 25.839C140.325 26.0527 140.936 26.2663 141.616 26.48C142.432 26.713 143.248 26.985 144.063 27.2957C144.879 27.587 145.627 27.9658 146.307 28.4319C146.987 28.8786 147.53 29.4516 147.938 30.1508C148.365 30.85 148.579 31.7337 148.579 32.8019C148.579 33.9284 148.307 34.9481 147.763 35.8609C147.239 36.7738 146.443 37.5021 145.374 38.0459C144.306 38.5897 142.966 38.8616 141.354 38.8616C140.033 38.8616 138.829 38.6674 137.742 38.279C136.673 37.8905 135.79 37.3273 135.09 36.5892C134.391 35.8318 133.935 34.9384 133.721 33.909L137.363 32.8893ZM157.401 38.8616C155.983 38.8616 154.74 38.5509 153.672 37.9294C152.603 37.3079 151.768 36.4436 151.166 35.3365C150.564 34.21 150.263 32.9087 150.263 31.4326C150.263 29.9371 150.564 28.6261 151.166 27.4996C151.768 26.3732 152.613 25.4894 153.701 24.8485C154.788 24.2076 156.041 23.8871 157.459 23.8871C158.993 23.8871 160.353 24.2658 161.538 25.0233C162.742 25.7808 163.587 26.8004 164.072 28.0823L160.605 29.0728C160.372 28.5096 159.984 28.0629 159.44 27.7327C158.916 27.4025 158.313 27.2374 157.634 27.2374C156.954 27.2374 156.352 27.4122 155.827 27.7618C155.322 28.1114 154.924 28.597 154.633 29.2185C154.361 29.84 154.225 30.5684 154.225 31.4035C154.225 32.666 154.536 33.6662 155.157 34.4042C155.779 35.1423 156.614 35.5113 157.663 35.5113C158.323 35.5113 158.925 35.3559 159.469 35.0452C160.013 34.715 160.421 34.2683 160.693 33.705L164.13 34.6956C163.606 35.958 162.732 36.968 161.508 37.7254C160.304 38.4829 158.935 38.8616 157.401 38.8616ZM174.963 38.6577L174.672 36.8806C174.186 37.4827 173.633 37.9585 173.011 38.3081C172.409 38.6577 171.593 38.8325 170.564 38.8325C169.593 38.8325 168.738 38.6674 168 38.3372C167.282 37.9876 166.718 37.5118 166.31 36.9097C165.903 36.2882 165.699 35.5599 165.699 34.7247C165.699 33.5011 166.136 32.4912 167.01 31.6948C167.903 30.8791 169.243 30.3644 171.03 30.1508L174.672 29.7429V28.7232C174.672 28.3154 174.487 27.9366 174.118 27.587C173.749 27.2374 173.166 27.0626 172.37 27.0626C171.671 27.0626 171.059 27.2374 170.535 27.587C170.03 27.9172 169.69 28.4222 169.515 29.102L166.31 27.9366C166.699 26.6354 167.437 25.6351 168.525 24.9359C169.612 24.2367 170.952 23.8871 172.545 23.8871C174.487 23.8871 175.944 24.3727 176.915 25.3438C177.905 26.2955 178.401 27.5579 178.401 29.1311V38.6577H174.963ZM174.672 32.3358L171.525 32.7436C170.884 32.8213 170.399 33.0156 170.069 33.3263C169.738 33.6176 169.573 33.977 169.573 34.4042C169.573 34.8121 169.738 35.1617 170.069 35.453C170.399 35.725 170.865 35.8609 171.467 35.8609C172.147 35.8609 172.72 35.7347 173.186 35.4822C173.671 35.2297 174.04 34.8607 174.293 34.3751C174.545 33.8896 174.672 33.2875 174.672 32.5688V32.3358ZM181.235 24.091H184.615L184.877 25.5768C185.343 25.0524 185.906 24.6446 186.567 24.3532C187.246 24.0425 187.975 23.8871 188.752 23.8871C189.898 23.8871 190.869 24.1299 191.665 24.6154C192.481 25.101 193.102 25.8099 193.53 26.7422C193.976 27.655 194.2 28.7912 194.2 30.1508V38.6577H190.441V30.646C190.441 29.5196 190.218 28.6747 189.771 28.1114C189.325 27.5482 188.655 27.2666 187.761 27.2666C186.848 27.2666 186.149 27.5579 185.664 28.1406C185.197 28.7038 184.964 29.5487 184.964 30.6752V38.6577H181.235V24.091ZM196.983 24.091H200.363L200.625 25.5768C201.091 25.0524 201.654 24.6446 202.315 24.3532C202.994 24.0425 203.723 23.8871 204.5 23.8871C205.646 23.8871 206.617 24.1299 207.413 24.6154C208.229 25.101 208.85 25.8099 209.278 26.7422C209.724 27.655 209.948 28.7912 209.948 30.1508V38.6577H206.189V30.646C206.189 29.5196 205.966 28.6747 205.519 28.1114C205.073 27.5482 204.403 27.2666 203.509 27.2666C202.596 27.2666 201.897 27.5579 201.412 28.1406C200.945 28.7038 200.712 29.5487 200.712 30.6752V38.6577H196.983V24.091ZM219.344 38.8616C217.888 38.8616 216.606 38.5412 215.499 37.9002C214.392 37.2593 213.527 36.3659 212.906 35.22C212.304 34.0741 212.003 32.7534 212.003 31.2578C212.003 29.8206 212.304 28.5484 212.906 27.4414C213.508 26.3343 214.343 25.47 215.411 24.8485C216.499 24.2076 217.732 23.8871 219.111 23.8871C220.51 23.8871 221.743 24.1882 222.811 24.7902C223.88 25.3923 224.705 26.2372 225.288 27.3248C225.89 28.3931 226.191 29.6458 226.191 31.083C226.191 31.2967 226.171 31.5395 226.133 31.8114C226.113 32.0639 226.084 32.3358 226.045 32.6271H216.023C216.101 33.2486 216.295 33.7827 216.606 34.2294C216.936 34.6567 217.334 34.9966 217.8 35.2491C218.286 35.4822 218.83 35.5987 219.432 35.5987C220.15 35.5987 220.791 35.453 221.355 35.1617C221.937 34.851 222.355 34.4528 222.607 33.9672L225.929 34.9578C225.346 36.2008 224.472 37.1622 223.307 37.842C222.161 38.5218 220.84 38.8616 219.344 38.8616ZM222.112 29.9177C222.093 29.3739 221.947 28.8883 221.675 28.461C221.403 28.0143 221.044 27.6744 220.597 27.4414C220.15 27.1889 219.655 27.0626 219.111 27.0626C218.626 27.0626 218.169 27.1889 217.742 27.4414C217.315 27.6939 216.946 28.0338 216.635 28.461C216.344 28.8689 216.149 29.3545 216.052 29.9177H222.112ZM228.451 24.091H231.83L232.092 25.9556C232.5 25.4506 232.957 25.0427 233.462 24.732C233.986 24.4018 234.559 24.1784 235.18 24.0619C235.802 23.926 236.453 23.9357 237.132 24.091V27.587C236.608 27.4122 236.054 27.3637 235.472 27.4414C234.909 27.5191 234.374 27.723 233.869 28.0532C233.384 28.3834 232.976 28.8592 232.646 29.4807C232.335 30.0828 232.18 30.85 232.18 31.7822V38.6577H228.451V24.091ZM247.384 27.587C248.161 27.587 248.802 27.4705 249.307 27.2374C249.812 26.985 250.181 26.6354 250.414 26.1886C250.666 25.7225 250.793 25.1787 250.793 24.5572C250.793 23.6055 250.511 22.8674 249.948 22.343C249.404 21.8186 248.549 21.5564 247.384 21.5564H243.043V27.587H247.384ZM254.813 24.5572C254.813 25.3146 254.677 26.0721 254.405 26.8296C254.133 27.5676 253.706 28.2474 253.123 28.8689C252.541 29.471 251.783 29.9566 250.851 30.3256C249.938 30.6946 248.821 30.8791 247.5 30.8791H243.043V38.6577H239.11V18.2644H247.5C249.151 18.2644 250.511 18.5557 251.579 19.1384C252.667 19.7016 253.473 20.4688 253.997 21.4399C254.541 22.3916 254.813 23.4307 254.813 24.5572ZM257.016 24.091H260.396L260.658 25.9556C261.066 25.4506 261.522 25.0427 262.027 24.732C262.551 24.4018 263.124 24.1784 263.746 24.0619C264.367 23.926 265.018 23.9357 265.698 24.091V27.587C265.173 27.4122 264.62 27.3637 264.037 27.4414C263.474 27.5191 262.94 27.723 262.435 28.0532C261.949 28.3834 261.541 28.8592 261.211 29.4807C260.901 30.0828 260.745 30.85 260.745 31.7822V38.6577H257.016V24.091ZM274.114 38.8616C272.696 38.8616 271.434 38.5606 270.327 37.9585C269.22 37.337 268.346 36.4727 267.705 35.3656C267.083 34.2392 266.772 32.9184 266.772 31.4035C266.772 29.8692 267.093 28.5387 267.734 27.4122C268.394 26.2858 269.288 25.4215 270.414 24.8194C271.541 24.1979 272.803 23.8871 274.201 23.8871C275.6 23.8871 276.862 24.1979 277.989 24.8194C279.115 25.4215 280.009 26.2858 280.669 27.4122C281.329 28.5193 281.66 29.8303 281.66 31.3452C281.66 32.8796 281.32 34.21 280.64 35.3365C279.979 36.463 279.076 37.337 277.93 37.9585C276.804 38.5606 275.532 38.8616 274.114 38.8616ZM274.085 35.5113C274.687 35.5113 275.26 35.3656 275.804 35.0743C276.348 34.7636 276.794 34.3071 277.144 33.705C277.493 33.0835 277.668 32.2969 277.668 31.3452C277.668 30.4324 277.503 29.6749 277.173 29.0728C276.843 28.4513 276.406 27.9949 275.862 27.7036C275.338 27.3928 274.765 27.2374 274.143 27.2374C273.541 27.2374 272.978 27.3928 272.453 27.7036C271.948 27.9949 271.541 28.4513 271.23 29.0728C270.938 29.6749 270.793 30.4518 270.793 31.4035C270.793 32.3164 270.938 33.0835 271.23 33.705C271.521 34.3071 271.919 34.7636 272.424 35.0743C272.929 35.3656 273.483 35.5113 274.085 35.5113Z" fill="url(#paint0_linear_279_1343)"/>
<path d="M37.921 2.37456C37.921 1.79717 38.3891 1.3291 38.9664 1.3291H45.6574C46.2347 1.3291 46.7028 1.79717 46.7028 2.37456V46.2836C46.7028 46.861 46.2347 47.3291 45.6574 47.3291H38.9664C38.3891 47.3291 37.921 46.861 37.921 46.2836V2.37456Z" fill="url(#paint1_linear_279_1343)"/>
<path d="M25.7165 13.3842C25.7165 12.8068 26.1845 12.3388 26.7619 12.3388H33.4528C34.0302 12.3388 34.4983 12.8068 34.4983 13.3842V46.2836C34.4983 46.861 34.0302 47.3291 33.4528 47.3291H26.7619C26.1845 47.3291 25.7165 46.861 25.7165 46.2836V13.3842Z" fill="url(#paint2_linear_279_1343)"/>
<path d="M13.512 23.7965C13.512 23.2191 13.9801 22.751 14.5575 22.751H21.2484C21.8258 22.751 22.2939 23.2191 22.2939 23.7965V46.2836C22.2939 46.861 21.8258 47.3291 21.2484 47.3291H14.5575C13.9801 47.3291 13.512 46.861 13.512 46.2836V23.7965Z" fill="url(#paint3_linear_279_1343)"/>
<path d="M1.30762 32.5872C1.30762 32.0098 1.77568 31.5417 2.35307 31.5417H9.04398C9.62137 31.5417 10.0894 32.0098 10.0894 32.5872V46.2836C10.0894 46.861 9.62137 47.3291 9.04398 47.3291H2.35307C1.77568 47.3291 1.30762 46.861 1.30762 46.2836V32.5872Z" fill="url(#paint4_linear_279_1343)"/>
<defs>
<linearGradient id="paint0_linear_279_1343" x1="4.4756" y1="33.6992" x2="119.773" y2="170.777" gradientUnits="userSpaceOnUse">
<stop stop-color="#01D5ED"/>
<stop offset="0.5" stop-color="#2A7AF3"/>
<stop offset="1" stop-color="#7D42F2"/>
</linearGradient>
<linearGradient id="paint1_linear_279_1343" x1="6.56823" y1="31.6122" x2="46.7028" y2="39.3572" gradientUnits="userSpaceOnUse">
<stop stop-color="#01D5ED"/>
<stop offset="0.5" stop-color="#2A7AF3"/>
<stop offset="1" stop-color="#7D42F2"/>
</linearGradient>
<linearGradient id="paint2_linear_279_1343" x1="6.56823" y1="31.6122" x2="46.7028" y2="39.3572" gradientUnits="userSpaceOnUse">
<stop stop-color="#01D5ED"/>
<stop offset="0.5" stop-color="#2A7AF3"/>
<stop offset="1" stop-color="#7D42F2"/>
</linearGradient>
<linearGradient id="paint3_linear_279_1343" x1="6.56823" y1="31.6122" x2="46.7028" y2="39.3572" gradientUnits="userSpaceOnUse">
<stop stop-color="#01D5ED"/>
<stop offset="0.5" stop-color="#2A7AF3"/>
<stop offset="1" stop-color="#7D42F2"/>
</linearGradient>
<linearGradient id="paint4_linear_279_1343" x1="6.56823" y1="31.6122" x2="46.7028" y2="39.3572" gradientUnits="userSpaceOnUse">
<stop stop-color="#01D5ED"/>
<stop offset="0.5" stop-color="#2A7AF3"/>
<stop offset="1" stop-color="#7D42F2"/>
</linearGradient>
</defs>
</svg>
