<svg width="226" height="47" viewBox="0 0 226 47" fill="none" xmlns="http://www.w3.org/2000/svg">
<g clip-path="url(#clip0_65_1943)">
<path fill-rule="evenodd" clip-rule="evenodd" d="M23.5855 25.6907V44.9396H18.9026C17.4863 44.9396 16.3399 43.7907 16.3399 42.3769V32.4897H3.14693C0.851534 32.4897 -0.585479 30.0058 0.563467 28.0176L13.421 5.72524C14.4861 3.88228 16.3415 2.66194 18.4194 2.38965V12.0204L10.5429 25.6907H23.5855Z" fill="url(#paint0_linear_65_1943)"/>
<path d="M18.4195 5.32251L18.4153 5.32417L4.17554 28.9481H19.6406V44.9395H23.5856V25.6906H10.5429L18.4195 12.0203V5.32251Z" fill="url(#paint1_linear_65_1943)"/>
<path fill-rule="evenodd" clip-rule="evenodd" d="M18.4153 21.6386V2.38965H23.0982C24.5145 2.38965 25.6609 3.53859 25.6609 4.95236V14.8396H38.8539C41.1493 14.8396 42.5863 17.3234 41.4374 19.3117L28.5806 41.6032C27.5155 43.4462 25.6593 44.6665 23.5822 44.9388V35.3081L31.4588 21.6378L18.4153 21.6386Z" fill="url(#paint2_linear_65_1943)"/>
<path d="M23.5814 42.0067L23.5855 42.005L37.8245 18.3811H22.3602V2.38965H18.4153V21.6386H31.458L23.5814 35.3089V42.0067Z" fill="url(#paint3_linear_65_1943)"/>
</g>
<path d="M61.8865 37.0246C59.6785 37.0246 57.7345 36.6406 56.0545 35.8726C54.3745 35.0806 52.9705 34.0366 51.8425 32.7406C50.7385 31.4206 49.8985 29.9446 49.3225 28.3126C48.7705 26.6806 48.4945 25.0126 48.4945 23.3086C48.4945 21.6286 48.7705 19.9726 49.3225 18.3406C49.8985 16.7086 50.7385 15.2445 51.8425 13.9485C52.9705 12.6525 54.3745 11.6205 56.0545 10.8526C57.7345 10.0605 59.6785 9.66455 61.8865 9.66455C63.7825 9.66455 65.3905 9.90455 66.7105 10.3846C68.0545 10.8405 69.1705 11.4525 70.0585 12.2206C70.9705 12.9646 71.6905 13.7566 72.2185 14.5965C72.7705 15.4125 73.1785 16.1925 73.4425 16.9365C73.7065 17.6805 73.8745 18.2926 73.9465 18.7726C74.0425 19.2526 74.0905 19.4925 74.0905 19.4925H67.9345C67.9345 19.4925 67.8625 19.2765 67.7185 18.8445C67.5985 18.4126 67.3345 17.9206 66.9265 17.3686C66.5425 16.7926 65.9545 16.2886 65.1625 15.8566C64.3705 15.4246 63.3025 15.2086 61.9585 15.2086C60.3985 15.2086 59.0905 15.6046 58.0345 16.3965C57.0025 17.1885 56.2225 18.2085 55.6945 19.4566C55.1905 20.6806 54.9385 21.9646 54.9385 23.3086C54.9385 24.6525 55.1905 25.9485 55.6945 27.1966C56.2225 28.4446 57.0025 29.4646 58.0345 30.2566C59.0905 31.0486 60.3985 31.4446 61.9585 31.4446C63.3025 31.4446 64.3705 31.2286 65.1625 30.7966C65.9545 30.3646 66.5425 29.8726 66.9265 29.3206C67.3345 28.7686 67.5985 28.2766 67.7185 27.8446C67.8625 27.4126 67.9345 27.1966 67.9345 27.1966H74.0905C74.0905 27.1966 74.0425 27.4366 73.9465 27.9166C73.8745 28.3726 73.7065 28.9846 73.4425 29.7526C73.1785 30.4966 72.7705 31.2886 72.2185 32.1286C71.6905 32.9446 70.9705 33.7366 70.0585 34.5046C69.1705 35.2486 68.0545 35.8606 66.7105 36.3406C65.3905 36.7966 63.7825 37.0246 61.8865 37.0246ZM86.5555 37.0246C84.3955 37.0246 82.5595 36.5686 81.0475 35.6566C79.5355 34.7446 78.3715 33.5326 77.5555 32.0206C76.7635 30.5086 76.3675 28.8766 76.3675 27.1246C76.3675 25.3725 76.7635 23.7405 77.5555 22.2285C78.3715 20.7166 79.5355 19.5045 81.0475 18.5925C82.5595 17.6805 84.3955 17.2246 86.5555 17.2246C88.7395 17.2246 90.5875 17.6805 92.0995 18.5925C93.6115 19.5045 94.7635 20.7166 95.5555 22.2285C96.3715 23.7405 96.7795 25.3725 96.7795 27.1246C96.7795 28.8766 96.3715 30.5086 95.5555 32.0206C94.7635 33.5326 93.6115 34.7446 92.0995 35.6566C90.5875 36.5686 88.7395 37.0246 86.5555 37.0246ZM86.5555 32.0566C87.8275 32.0566 88.8115 31.5766 89.5075 30.6166C90.2275 29.6326 90.5875 28.4686 90.5875 27.1246C90.5875 25.7806 90.2275 24.6286 89.5075 23.6685C88.8115 22.6846 87.8275 22.1926 86.5555 22.1926C85.3075 22.1926 84.3235 22.6846 83.6035 23.6685C82.8835 24.6286 82.5235 25.7806 82.5235 27.1246C82.5235 28.4686 82.8835 29.6326 83.6035 30.6166C84.3235 31.5766 85.3075 32.0566 86.5555 32.0566ZM103.299 15.3165C102.267 15.3165 101.415 14.9805 100.743 14.3085C100.071 13.6365 99.7346 12.8445 99.7346 11.9325C99.7346 10.9725 100.071 10.1565 100.743 9.48455C101.415 8.81255 102.267 8.47655 103.299 8.47655C104.331 8.47655 105.183 8.81255 105.855 9.48455C106.527 10.1565 106.863 10.9725 106.863 11.9325C106.863 12.8445 106.527 13.6365 105.855 14.3085C105.183 14.9805 104.331 15.3165 103.299 15.3165ZM100.203 36.6646V17.5845H106.359V36.6646H100.203ZM110.018 36.6646V17.5845H116.174V20.2846H116.354C116.594 19.9006 116.918 19.4686 117.326 18.9885C117.758 18.5085 118.322 18.1005 119.018 17.7645C119.738 17.4045 120.626 17.2246 121.682 17.2246C123.218 17.2246 124.442 17.5725 125.354 18.2685C126.29 18.9645 126.962 19.8526 127.37 20.9326C127.778 21.9886 127.982 23.0806 127.982 24.2086V36.6646H121.826V25.3606C121.826 24.5446 121.61 23.8246 121.178 23.2006C120.746 22.5526 120.038 22.2285 119.054 22.2285C117.974 22.2285 117.218 22.5885 116.786 23.3086C116.378 24.0046 116.174 24.7726 116.174 25.6126V36.6646H110.018ZM131.526 36.6646V10.0246H143.01C145.242 10.0246 147.102 10.4565 148.59 11.3205C150.078 12.1845 151.182 13.3005 151.902 14.6686C152.646 16.0366 153.018 17.4646 153.018 18.9526C153.018 20.4646 152.646 21.9046 151.902 23.2726C151.182 24.6406 150.078 25.7685 148.59 26.6565C147.102 27.5206 145.242 27.9526 143.01 27.9526H137.754V36.6646H131.526ZM142.974 15.4605H137.754V22.5526H142.974C144.246 22.5526 145.194 22.1806 145.818 21.4366C146.442 20.6926 146.754 19.8765 146.754 18.9885C146.754 18.1006 146.442 17.2966 145.818 16.5765C145.194 15.8325 144.246 15.4605 142.974 15.4605ZM161.169 37.0246C159.777 37.0246 158.649 36.7366 157.785 36.1606C156.945 35.5606 156.321 34.7806 155.913 33.8206C155.505 32.8366 155.301 31.7566 155.301 30.5806V17.5845H161.385V29.2126C161.385 30.0286 161.601 30.7006 162.033 31.2286C162.465 31.7566 163.113 32.0206 163.977 32.0206C164.961 32.0206 165.657 31.6966 166.065 31.0486C166.497 30.3766 166.713 29.6206 166.713 28.7806V17.5845H172.869V36.6646H166.713V33.9646H166.497C166.017 34.8046 165.345 35.5246 164.481 36.1246C163.617 36.7246 162.513 37.0246 161.169 37.0246ZM176.386 36.6646V9.30455H182.542V36.6646H176.386ZM194.452 37.0246C192.82 37.0246 191.464 36.8086 190.384 36.3766C189.328 35.9446 188.488 35.4046 187.864 34.7566C187.24 34.1086 186.772 33.4606 186.46 32.8126C186.148 32.1646 185.944 31.6246 185.848 31.1926C185.752 30.7606 185.704 30.5446 185.704 30.5446H191.32C191.32 30.5446 191.356 30.6526 191.428 30.8686C191.524 31.0606 191.68 31.3006 191.896 31.5886C192.136 31.8526 192.484 32.0926 192.94 32.3086C193.396 32.5006 194.008 32.5966 194.776 32.5966C195.712 32.5966 196.324 32.4166 196.612 32.0566C196.9 31.6966 197.044 31.3726 197.044 31.0846C197.044 30.3646 196.432 29.8846 195.208 29.6446L192.58 29.1766C191.428 28.9846 190.348 28.6726 189.34 28.2406C188.332 27.8086 187.516 27.2086 186.892 26.4406C186.268 25.6726 185.956 24.6766 185.956 23.4526C185.956 22.2766 186.256 21.2206 186.856 20.2846C187.48 19.3486 188.368 18.6046 189.52 18.0526C190.696 17.5006 192.112 17.2246 193.768 17.2246C195.28 17.2246 196.54 17.4286 197.548 17.8366C198.556 18.2445 199.36 18.7485 199.96 19.3485C200.56 19.9485 201.004 20.5485 201.292 21.1485C201.58 21.7486 201.772 22.2526 201.868 22.6605C201.964 23.0686 202.012 23.2726 202.012 23.2726H196.576C196.576 23.2726 196.504 23.1286 196.36 22.8406C196.216 22.5526 195.928 22.2645 195.496 21.9765C195.088 21.6886 194.464 21.5446 193.624 21.5446C192.784 21.5446 192.208 21.7126 191.896 22.0486C191.584 22.3606 191.428 22.6846 191.428 23.0206C191.428 23.4525 191.632 23.7765 192.04 23.9925C192.448 24.1846 192.964 24.3406 193.588 24.4606L196 24.9286C197.896 25.2886 199.444 25.9246 200.644 26.8366C201.868 27.7246 202.48 29.0326 202.48 30.7606C202.48 32.5366 201.784 34.0246 200.392 35.2246C199.024 36.4246 197.044 37.0246 194.452 37.0246ZM214.682 37.0246C212.978 37.0246 211.502 36.7486 210.254 36.1966C209.006 35.6206 207.962 34.8646 207.122 33.9286C206.306 32.9686 205.694 31.9006 205.286 30.7246C204.902 29.5486 204.71 28.3366 204.71 27.0886C204.71 25.8886 204.902 24.7006 205.286 23.5246C205.67 22.3485 206.258 21.2925 207.05 20.3566C207.842 19.3965 208.85 18.6405 210.074 18.0885C211.322 17.5125 212.798 17.2246 214.502 17.2246C216.326 17.2246 217.922 17.6205 219.29 18.4125C220.682 19.1805 221.762 20.3205 222.53 21.8325C223.322 23.3205 223.718 25.1326 223.718 27.2686V28.7086H210.902C210.974 29.6926 211.322 30.5566 211.946 31.3006C212.594 32.0206 213.506 32.3806 214.682 32.3806C215.57 32.3806 216.242 32.2246 216.698 31.9126C217.178 31.5766 217.502 31.2406 217.67 30.9046C217.838 30.5686 217.922 30.4006 217.922 30.4006H223.574C223.574 30.4006 223.514 30.6286 223.394 31.0846C223.274 31.5166 223.046 32.0686 222.71 32.7406C222.374 33.3886 221.882 34.0486 221.234 34.7206C220.586 35.3686 219.722 35.9206 218.642 36.3766C217.586 36.8086 216.266 37.0246 214.682 37.0246ZM210.866 25.1445H217.814C217.766 24.0166 217.418 23.1646 216.77 22.5885C216.146 22.0125 215.354 21.7246 214.394 21.7246C213.458 21.7246 212.654 22.0125 211.982 22.5885C211.334 23.1646 210.962 24.0166 210.866 25.1445Z" fill="#001D34"/>
<defs>
<linearGradient id="paint0_linear_65_1943" x1="5.87632" y1="43.9859" x2="29.3889" y2="10.2586" gradientUnits="userSpaceOnUse">
<stop stop-color="#8A6EFF"/>
<stop offset="0.06" stop-color="#52B4FF"/>
<stop offset="0.28" stop-color="#8A6EFF"/>
<stop offset="0.5" stop-color="#174DBA"/>
<stop offset="0.86" stop-color="#7023FF"/>
<stop offset="1" stop-color="#427DFF"/>
</linearGradient>
<linearGradient id="paint1_linear_65_1943" x1="16.6834" y1="5.83658" x2="8.28792" y2="43.1569" gradientUnits="userSpaceOnUse">
<stop stop-color="#1E69FF"/>
<stop offset="1" stop-color="#8FDAFF"/>
</linearGradient>
<linearGradient id="paint2_linear_65_1943" x1="24.1324" y1="43.9851" x2="47.6444" y2="10.258" gradientUnits="userSpaceOnUse">
<stop stop-color="#427DFF"/>
<stop offset="0.14" stop-color="#7023FF"/>
<stop offset="0.5" stop-color="#174DBA"/>
<stop offset="0.72" stop-color="#8A6EFF"/>
<stop offset="0.94" stop-color="#52B4FF"/>
<stop offset="1" stop-color="#8A6EFF"/>
</linearGradient>
<linearGradient id="paint3_linear_65_1943" x1="30.9226" y1="2.90372" x2="22.5268" y2="40.2239" gradientUnits="userSpaceOnUse">
<stop stop-color="#8FDAFF"/>
<stop offset="1" stop-color="#1E69FF"/>
</linearGradient>
<clipPath id="clip0_65_1943">
<rect width="41.6817" height="42.55" fill="white" transform="translate(0.15918 2.38965)"/>
</clipPath>
</defs>
</svg>
