<svg width="284" height="47" viewBox="0 0 284 47" fill="none" xmlns="http://www.w3.org/2000/svg">
<path d="M58.0737 17.5998H74.6214V20.8919H68.3286V37.9932H64.3956V20.8919H58.0737V17.5998ZM76.7996 23.4265H80.179L80.4412 25.291C80.8491 24.7861 81.3055 24.3782 81.8105 24.0674C82.3349 23.7373 82.9079 23.5139 83.5294 23.3974C84.1509 23.2614 84.8015 23.2711 85.4813 23.4265V26.9225C84.9569 26.7477 84.4034 26.6992 83.8207 26.7768C83.2575 26.8545 82.7233 27.0585 82.2184 27.3886C81.7328 27.7188 81.3249 28.1947 80.9948 28.8162C80.684 29.4183 80.5286 30.1854 80.5286 31.1177V37.9932H76.7996V23.4265ZM95.8494 37.9932L95.558 36.216C95.0725 36.8181 94.5189 37.294 93.8974 37.6436C93.2953 37.9932 92.4796 38.168 91.4502 38.168C90.4791 38.168 89.6245 38.0029 88.8865 37.6727C88.1679 37.3231 87.6046 36.8473 87.1968 36.2452C86.7889 35.6237 86.585 34.8953 86.585 34.0602C86.585 32.8366 87.022 31.8266 87.896 31.0303C88.7894 30.2146 90.1295 29.6999 91.9164 29.4862L95.558 29.0784V28.0587C95.558 27.6508 95.3735 27.2721 95.0045 26.9225C94.6355 26.5729 94.0528 26.3981 93.2565 26.3981C92.5573 26.3981 91.9455 26.5729 91.4211 26.9225C90.9161 27.2527 90.5762 27.7577 90.4014 28.4374L87.1968 27.2721C87.5852 25.9708 88.3232 24.9706 89.4109 24.2714C90.4985 23.5722 91.8387 23.2226 93.4313 23.2226C95.3735 23.2226 96.8302 23.7081 97.8013 24.6792C98.7918 25.6309 99.2871 26.8934 99.2871 28.4666V37.9932H95.8494ZM95.558 31.6712L92.4116 32.0791C91.7707 32.1568 91.2851 32.351 90.955 32.6618C90.6248 32.9531 90.4597 33.3124 90.4597 33.7397C90.4597 34.1476 90.6248 34.4972 90.955 34.7885C91.2851 35.0604 91.7513 35.1964 92.3534 35.1964C93.0331 35.1964 93.6061 35.0701 94.0722 34.8176C94.5578 34.5652 94.9268 34.1961 95.1793 33.7106C95.4318 33.225 95.558 32.6229 95.558 31.9043V31.6712ZM112.697 25.6115L112.231 25.6698V17.0172H115.96V37.9932H112.581L112.347 36.1869C111.881 36.7307 111.26 37.2066 110.483 37.6144C109.725 38.0029 108.842 38.1971 107.832 38.1971C106.569 38.1971 105.453 37.8864 104.481 37.2648C103.51 36.6433 102.753 35.779 102.209 34.672C101.665 33.5455 101.393 32.2248 101.393 30.7098C101.393 29.1949 101.665 27.8742 102.209 26.7477C102.753 25.6212 103.51 24.7569 104.481 24.1548C105.453 23.5333 106.569 23.2226 107.832 23.2226C108.978 23.2226 109.959 23.4556 110.774 23.9218C111.609 24.3879 112.25 24.9512 112.697 25.6115ZM105.414 30.7098C105.414 31.9334 105.724 32.924 106.346 33.6814C106.968 34.4195 107.783 34.7885 108.793 34.7885C109.415 34.7885 109.978 34.6331 110.483 34.3224C111.007 33.9922 111.425 33.5261 111.736 32.924C112.066 32.3219 112.231 31.5838 112.231 30.7098C112.231 29.8358 112.066 29.0978 111.736 28.4957C111.425 27.8936 111.007 27.4372 110.483 27.1264C109.978 26.7963 109.415 26.6312 108.793 26.6312C107.783 26.6312 106.968 27.0099 106.346 27.7674C105.724 28.5054 105.414 29.4862 105.414 30.7098ZM125.564 38.1971C124.107 38.1971 122.825 37.8766 121.718 37.2357C120.611 36.5948 119.747 35.7014 119.126 34.5554C118.523 33.4095 118.222 32.0888 118.222 30.5933C118.222 29.1561 118.523 27.8839 119.126 26.7768C119.728 25.6698 120.563 24.8055 121.631 24.184C122.719 23.543 123.952 23.2226 125.331 23.2226C126.729 23.2226 127.963 23.5236 129.031 24.1257C130.099 24.7278 130.925 25.5727 131.507 26.6603C132.109 27.7285 132.41 28.9813 132.41 30.4185C132.41 30.6322 132.391 30.8749 132.352 31.1468C132.333 31.3993 132.304 31.6712 132.265 31.9626H122.243C122.32 32.5841 122.515 33.1182 122.825 33.5649C123.156 33.9922 123.554 34.3321 124.02 34.5846C124.505 34.8176 125.049 34.9342 125.651 34.9342C126.37 34.9342 127.011 34.7885 127.574 34.4972C128.157 34.1864 128.574 33.7883 128.827 33.3027L132.148 34.2932C131.565 35.5363 130.691 36.4977 129.526 37.1774C128.38 37.8572 127.059 38.1971 125.564 38.1971ZM128.332 29.2532C128.312 28.7094 128.167 28.2238 127.895 27.7965C127.623 27.3498 127.263 27.0099 126.817 26.7768C126.37 26.5244 125.875 26.3981 125.331 26.3981C124.845 26.3981 124.389 26.5244 123.962 26.7768C123.534 27.0293 123.165 27.3692 122.855 27.7965C122.563 28.2044 122.369 28.6899 122.272 29.2532H128.332ZM137.7 32.2248C137.797 32.7686 138.011 33.2444 138.341 33.6523C138.671 34.0602 139.098 34.3806 139.623 34.6137C140.167 34.8274 140.798 34.9342 141.517 34.9342C142.643 34.9342 143.488 34.6817 144.051 34.1767C144.614 33.6523 144.896 33.0211 144.896 32.283C144.896 31.7004 144.721 31.2148 144.372 30.8264C144.022 30.4379 143.527 30.1078 142.886 29.8358C142.264 29.5639 141.536 29.3017 140.701 29.0492C139.924 28.8162 139.157 28.5637 138.399 28.2918C137.642 28.0199 136.952 27.68 136.331 27.2721C135.709 26.8642 135.214 26.3398 134.845 25.6989C134.495 25.0386 134.321 24.2131 134.321 23.2226C134.321 21.9796 134.622 20.921 135.224 20.047C135.845 19.173 136.69 18.5127 137.758 18.066C138.827 17.6193 140.06 17.3959 141.458 17.3959C142.643 17.3959 143.711 17.5707 144.663 17.9203C145.615 18.2505 146.411 18.7458 147.052 19.4061C147.712 20.047 148.198 20.8434 148.509 21.795L144.867 22.7856C144.77 22.3583 144.556 21.9893 144.226 21.6785C143.896 21.3678 143.498 21.125 143.031 20.9502C142.565 20.756 142.06 20.6588 141.517 20.6588C140.934 20.6394 140.4 20.7268 139.914 20.921C139.429 21.1153 139.04 21.3969 138.749 21.7659C138.458 22.1349 138.312 22.5622 138.312 23.0478C138.312 23.5916 138.477 24.0286 138.807 24.3588C139.137 24.6695 139.574 24.9414 140.118 25.1745C140.662 25.3882 141.274 25.6018 141.954 25.8154C142.769 26.0485 143.585 26.3204 144.401 26.6312C145.216 26.9225 145.964 27.3012 146.644 27.7674C147.324 28.2141 147.868 28.787 148.275 29.4862C148.703 30.1854 148.916 31.0692 148.916 32.1374C148.916 33.2639 148.644 34.2835 148.101 35.1964C147.576 36.1092 146.78 36.8376 145.712 37.3814C144.644 37.9252 143.303 38.1971 141.691 38.1971C140.371 38.1971 139.166 38.0029 138.079 37.6144C137.011 37.226 136.127 36.6628 135.428 35.9247C134.728 35.1672 134.272 34.2738 134.058 33.2444L137.7 32.2248ZM157.738 38.1971C156.32 38.1971 155.077 37.8864 154.009 37.2648C152.941 36.6433 152.105 35.779 151.503 34.672C150.901 33.5455 150.6 32.2442 150.6 30.7681C150.6 29.2726 150.901 27.9616 151.503 26.8351C152.105 25.7086 152.95 24.8249 154.038 24.184C155.126 23.543 156.378 23.2226 157.796 23.2226C159.331 23.2226 160.69 23.6013 161.875 24.3588C163.079 25.1162 163.924 26.1359 164.409 27.4178L160.943 28.4083C160.709 27.8451 160.321 27.3984 159.777 27.0682C159.253 26.738 158.651 26.5729 157.971 26.5729C157.291 26.5729 156.689 26.7477 156.165 27.0973C155.66 27.4469 155.262 27.9325 154.97 28.554C154.698 29.1755 154.562 29.9038 154.562 30.739C154.562 32.0014 154.873 33.0017 155.495 33.7397C156.116 34.4778 156.951 34.8468 158 34.8468C158.66 34.8468 159.263 34.6914 159.806 34.3806C160.35 34.0505 160.758 33.6038 161.03 33.0405L164.468 34.031C163.943 35.2935 163.069 36.3034 161.846 37.0609C160.642 37.8184 159.272 38.1971 157.738 38.1971ZM175.3 37.9932L175.009 36.216C174.523 36.8181 173.97 37.294 173.348 37.6436C172.746 37.9932 171.931 38.168 170.901 38.168C169.93 38.168 169.075 38.0029 168.337 37.6727C167.619 37.3231 167.056 36.8473 166.648 36.2452C166.24 35.6237 166.036 34.8953 166.036 34.0602C166.036 32.8366 166.473 31.8266 167.347 31.0303C168.24 30.2146 169.58 29.6999 171.367 29.4862L175.009 29.0784V28.0587C175.009 27.6508 174.824 27.2721 174.455 26.9225C174.086 26.5729 173.504 26.3981 172.707 26.3981C172.008 26.3981 171.396 26.5729 170.872 26.9225C170.367 27.2527 170.027 27.7577 169.852 28.4374L166.648 27.2721C167.036 25.9708 167.774 24.9706 168.862 24.2714C169.949 23.5722 171.29 23.2226 172.882 23.2226C174.824 23.2226 176.281 23.7081 177.252 24.6792C178.243 25.6309 178.738 26.8934 178.738 28.4666V37.9932H175.3ZM175.009 31.6712L171.863 32.0791C171.222 32.1568 170.736 32.351 170.406 32.6618C170.076 32.9531 169.911 33.3124 169.911 33.7397C169.911 34.1476 170.076 34.4972 170.406 34.7885C170.736 35.0604 171.202 35.1964 171.804 35.1964C172.484 35.1964 173.057 35.0701 173.523 34.8176C174.009 34.5652 174.378 34.1961 174.63 33.7106C174.883 33.225 175.009 32.6229 175.009 31.9043V31.6712ZM181.573 23.4265H184.952L185.214 24.9123C185.68 24.3879 186.244 23.98 186.904 23.6887C187.584 23.378 188.312 23.2226 189.089 23.2226C190.235 23.2226 191.206 23.4654 192.002 23.9509C192.818 24.4365 193.44 25.1454 193.867 26.0776C194.314 26.9905 194.537 28.1267 194.537 29.4862V37.9932H190.779V29.9815C190.779 28.855 190.555 28.0102 190.109 27.4469C189.662 26.8837 188.992 26.602 188.098 26.602C187.186 26.602 186.486 26.8934 186.001 27.476C185.535 28.0393 185.302 28.8842 185.302 30.0106V37.9932H181.573V23.4265ZM197.321 23.4265H200.7L200.962 24.9123C201.428 24.3879 201.992 23.98 202.652 23.6887C203.332 23.378 204.06 23.2226 204.837 23.2226C205.983 23.2226 206.954 23.4654 207.75 23.9509C208.566 24.4365 209.188 25.1454 209.615 26.0776C210.062 26.9905 210.285 28.1267 210.285 29.4862V37.9932H206.527V29.9815C206.527 28.855 206.303 28.0102 205.857 27.4469C205.41 26.8837 204.74 26.602 203.846 26.602C202.934 26.602 202.234 26.8934 201.749 27.476C201.283 28.0393 201.05 28.8842 201.05 30.0106V37.9932H197.321V23.4265ZM219.682 38.1971C218.225 38.1971 216.943 37.8766 215.836 37.2357C214.729 36.5948 213.865 35.7014 213.243 34.5554C212.641 33.4095 212.34 32.0888 212.34 30.5933C212.34 29.1561 212.641 27.8839 213.243 26.7768C213.845 25.6698 214.681 24.8055 215.749 24.184C216.836 23.543 218.07 23.2226 219.449 23.2226C220.847 23.2226 222.08 23.5236 223.149 24.1257C224.217 24.7278 225.042 25.5727 225.625 26.6603C226.227 27.7285 226.528 28.9813 226.528 30.4185C226.528 30.6322 226.509 30.8749 226.47 31.1468C226.45 31.3993 226.421 31.6712 226.382 31.9626H216.361C216.438 32.5841 216.632 33.1182 216.943 33.5649C217.273 33.9922 217.672 34.3321 218.138 34.5846C218.623 34.8176 219.167 34.9342 219.769 34.9342C220.488 34.9342 221.129 34.7885 221.692 34.4972C222.275 34.1864 222.692 33.7883 222.945 33.3027L226.266 34.2932C225.683 35.5363 224.809 36.4977 223.644 37.1774C222.498 37.8572 221.177 38.1971 219.682 38.1971ZM222.449 29.2532C222.43 28.7094 222.284 28.2238 222.012 27.7965C221.74 27.3498 221.381 27.0099 220.934 26.7768C220.488 26.5244 219.992 26.3981 219.449 26.3981C218.963 26.3981 218.507 26.5244 218.079 26.7768C217.652 27.0293 217.283 27.3692 216.972 27.7965C216.681 28.2044 216.487 28.6899 216.39 29.2532H222.449ZM228.788 23.4265H232.167L232.43 25.291C232.837 24.7861 233.294 24.3782 233.799 24.0674C234.323 23.7373 234.896 23.5139 235.518 23.3974C236.139 23.2614 236.79 23.2711 237.47 23.4265V26.9225C236.945 26.7477 236.392 26.6992 235.809 26.7768C235.246 26.8545 234.712 27.0585 234.207 27.3886C233.721 27.7188 233.313 28.1947 232.983 28.8162C232.672 29.4183 232.517 30.1854 232.517 31.1177V37.9932H228.788V23.4265ZM247.721 26.9225C248.498 26.9225 249.139 26.806 249.644 26.5729C250.149 26.3204 250.518 25.9708 250.751 25.5241C251.004 25.058 251.13 24.5142 251.13 23.8926C251.13 22.941 250.848 22.2029 250.285 21.6785C249.741 21.1541 248.887 20.8919 247.721 20.8919H243.38V26.9225H247.721ZM255.15 23.8926C255.15 24.6501 255.014 25.4076 254.742 26.165C254.47 26.9031 254.043 27.5829 253.46 28.2044C252.878 28.8065 252.12 29.292 251.188 29.661C250.275 30.0301 249.158 30.2146 247.838 30.2146H243.38V37.9932H239.447V17.5998H247.838C249.489 17.5998 250.848 17.8912 251.916 18.4738C253.004 19.0371 253.81 19.8043 254.334 20.7754C254.878 21.7271 255.15 22.7662 255.15 23.8926ZM257.353 23.4265H260.733L260.995 25.291C261.403 24.7861 261.859 24.3782 262.364 24.0674C262.889 23.7373 263.462 23.5139 264.083 23.3974C264.705 23.2614 265.355 23.2711 266.035 23.4265V26.9225C265.511 26.7477 264.957 26.6992 264.375 26.7768C263.811 26.8545 263.277 27.0585 262.772 27.3886C262.287 27.7188 261.879 28.1947 261.549 28.8162C261.238 29.4183 261.082 30.1854 261.082 31.1177V37.9932H257.353V23.4265ZM274.451 38.1971C273.033 38.1971 271.771 37.8961 270.664 37.294C269.557 36.6725 268.683 35.8082 268.042 34.7011C267.42 33.5746 267.11 32.2539 267.11 30.739C267.11 29.2046 267.43 27.8742 268.071 26.7477C268.731 25.6212 269.625 24.7569 270.751 24.1548C271.878 23.5333 273.14 23.2226 274.539 23.2226C275.937 23.2226 277.2 23.5333 278.326 24.1548C279.452 24.7569 280.346 25.6212 281.006 26.7477C281.667 27.8548 281.997 29.1658 281.997 30.6807C281.997 32.2151 281.657 33.5455 280.977 34.672C280.317 35.7985 279.414 36.6725 278.268 37.294C277.141 37.8961 275.869 38.1971 274.451 38.1971ZM274.422 34.8468C275.024 34.8468 275.597 34.7011 276.141 34.4098C276.685 34.099 277.132 33.6426 277.481 33.0405C277.831 32.419 278.006 31.6324 278.006 30.6807C278.006 29.7679 277.84 29.0104 277.51 28.4083C277.18 27.7868 276.743 27.3304 276.199 27.039C275.675 26.7283 275.102 26.5729 274.48 26.5729C273.878 26.5729 273.315 26.7283 272.791 27.039C272.286 27.3304 271.878 27.7868 271.567 28.4083C271.276 29.0104 271.13 29.7873 271.13 30.739C271.13 31.6518 271.276 32.419 271.567 33.0405C271.858 33.6426 272.257 34.099 272.762 34.4098C273.267 34.7011 273.82 34.8468 274.422 34.8468Z" fill="white"/>
<path d="M38.2583 1.71005C38.2583 1.13266 38.7263 0.664597 39.3037 0.664597H45.9946C46.572 0.664597 47.0401 1.13266 47.0401 1.71005V45.6191C47.0401 46.1965 46.572 46.6646 45.9946 46.6646H39.3037C38.7263 46.6646 38.2583 46.1965 38.2583 45.6191V1.71005Z" fill="url(#paint0_linear_279_1293)"/>
<path d="M26.0537 12.7197C26.0537 12.1423 26.5218 11.6743 27.0992 11.6743H33.7901C34.3675 11.6743 34.8356 12.1423 34.8356 12.7197V45.6191C34.8356 46.1965 34.3675 46.6646 33.7901 46.6646H27.0992C26.5218 46.6646 26.0537 46.1965 26.0537 45.6191V12.7197Z" fill="url(#paint1_linear_279_1293)"/>
<path d="M13.8493 23.132C13.8493 22.5546 14.3174 22.0865 14.8948 22.0865H21.5857C22.1631 22.0865 22.6311 22.5546 22.6311 23.132V45.6191C22.6311 46.1965 22.1631 46.6646 21.5857 46.6646H14.8948C14.3174 46.6646 13.8493 46.1965 13.8493 45.6191V23.132Z" fill="url(#paint2_linear_279_1293)"/>
<path d="M1.6449 31.9227C1.6449 31.3453 2.11296 30.8772 2.69035 30.8772H9.38126C9.95865 30.8772 10.4267 31.3453 10.4267 31.9227V45.6191C10.4267 46.1965 9.95865 46.6646 9.38126 46.6646H2.69035C2.11296 46.6646 1.6449 46.1965 1.6449 45.6191V31.9227Z" fill="url(#paint3_linear_279_1293)"/>
<defs>
<linearGradient id="paint0_linear_279_1293" x1="6.90551" y1="30.9477" x2="47.0401" y2="38.6927" gradientUnits="userSpaceOnUse">
<stop stop-color="#01D5ED"/>
<stop offset="0.5" stop-color="#2A7AF3"/>
<stop offset="1" stop-color="#7D42F2"/>
</linearGradient>
<linearGradient id="paint1_linear_279_1293" x1="6.90551" y1="30.9477" x2="47.0401" y2="38.6927" gradientUnits="userSpaceOnUse">
<stop stop-color="#01D5ED"/>
<stop offset="0.5" stop-color="#2A7AF3"/>
<stop offset="1" stop-color="#7D42F2"/>
</linearGradient>
<linearGradient id="paint2_linear_279_1293" x1="6.90551" y1="30.9477" x2="47.0401" y2="38.6927" gradientUnits="userSpaceOnUse">
<stop stop-color="#01D5ED"/>
<stop offset="0.5" stop-color="#2A7AF3"/>
<stop offset="1" stop-color="#7D42F2"/>
</linearGradient>
<linearGradient id="paint3_linear_279_1293" x1="6.90551" y1="30.9477" x2="47.0401" y2="38.6927" gradientUnits="userSpaceOnUse">
<stop stop-color="#01D5ED"/>
<stop offset="0.5" stop-color="#2A7AF3"/>
<stop offset="1" stop-color="#7D42F2"/>
</linearGradient>
</defs>
</svg>
