<svg width="30" height="30" viewBox="0 0 30 30" fill="none" xmlns="http://www.w3.org/2000/svg">
<path d="M15 0C6.72875 0 0 6.72875 0 15C0 23.2712 6.72875 30 15 30C23.2712 30 30 23.2712 30 15C30 6.72875 23.2712 0 15 0ZM10 26.455V23.75C10 23.06 10.5612 22.5 11.25 22.5H18.75C19.4387 22.5 20 23.06 20 23.75V26.455C18.4675 27.1262 16.7775 27.5 15 27.5C13.2225 27.5 11.5325 27.1262 10 26.455ZM22.5 24.9938V23.75C22.5 21.6825 20.8175 20 18.75 20H11.25C9.1825 20 7.5 21.6825 7.5 23.75V24.9938C4.46625 22.7113 2.5 19.0812 2.5 15C2.5 8.1075 8.1075 2.5 15 2.5C21.8925 2.5 27.5 8.1075 27.5 15C27.5 19.08 25.5338 22.7113 22.5 24.9938ZM15 7.5C12.2425 7.5 10 9.7425 10 12.5C10 15.2575 12.2425 17.5 15 17.5C17.7575 17.5 20 15.2575 20 12.5C20 9.7425 17.7575 7.5 15 7.5ZM15 15C13.6213 15 12.5 13.8787 12.5 12.5C12.5 11.1213 13.6213 10 15 10C16.3787 10 17.5 11.1213 17.5 12.5C17.5 13.8787 16.3787 15 15 15Z" fill="url(#paint0_linear_315_10641)"/>
<defs>
<linearGradient id="paint0_linear_315_10641" x1="-6.93853" y1="19.7499" x2="28.7888" y2="26.3281" gradientUnits="userSpaceOnUse">
<stop stop-color="#01D5ED"/>
<stop offset="0.5" stop-color="#2A7AF3"/>
<stop offset="1" stop-color="#7D42F2"/>
</linearGradient>
</defs>
</svg>
