<svg width="25" height="24" viewBox="0 0 25 24" fill="none" xmlns="http://www.w3.org/2000/svg">
<g clip-path="url(#clip0_65_1955)">
<path d="M22.5 12H24.5C24.5 18.6 19.1 24 12.5 24C8.4 24 4.7 21.9 2.5 18.6V21H0.5V17C0.5 15.9 1.4 15 2.5 15H6.5V17H3.9C5.7 20.1 9 22 12.5 22C18 22 22.5 17.5 22.5 12ZM22.5 3V5.4C20.3 2 16.6 0 12.5 0C5.9 0 0.5 5.4 0.5 12H2.5C2.5 6.5 7 2 12.5 2C16.1 2 19.4 3.9 21.2 7H18.5V9H22.5C23.6 9 24.5 8.1 24.5 7V3H22.5Z" fill="white"/>
<path d="M12.9 11H11.5V9.6H12.8C13.2 9.6 13.5 9.9 13.5 10.3C13.5 10.7 13.2 11 12.9 11ZM13.2 12.6H11.5V14.4H13.2C13.7 14.4 14.1 14 14.1 13.5C14.1 13 13.7 12.6 13.2 12.6ZM19 12C19 15.6 16.1 18.5 12.5 18.5C8.9 18.5 6 15.6 6 12C6 8.4 8.9 5.5 12.5 5.5C16.1 5.5 19 8.4 19 12ZM15.7 13.5C15.7 12.8 15.2 12 14.6 11.7C14.9 11.3 15 10.9 15 10.4C15 9.3 14.2 8.4 13.2 8.1V7H11.6V8H10V16H11.7V17H13.3V16H13.5C14.8 15.8 15.7 14.8 15.7 13.5Z" fill="white"/>
</g>
<defs>
<clipPath id="clip0_65_1955">
<rect width="24" height="24" fill="white" transform="translate(0.5)"/>
</clipPath>
</defs>
</svg>
