<svg width="40" height="40" viewBox="0 0 40 40" fill="none" xmlns="http://www.w3.org/2000/svg">
<rect width="40" height="40" rx="20" fill="url(#paint0_linear_203_2394)"/>
<g clip-path="url(#clip0_203_2394)">
<path d="M27.143 20H28.5716C28.5716 24.7143 24.7144 28.5714 20.0001 28.5714C17.0716 28.5714 14.4287 27.0714 12.8573 24.7143V26.4286H11.4287V23.5714C11.4287 22.7857 12.0716 22.1429 12.8573 22.1429H15.7144V23.5714H13.8573C15.143 25.7857 17.5001 27.1429 20.0001 27.1429C23.9287 27.1429 27.143 23.9286 27.143 20ZM27.143 13.5714V15.2857C25.5716 12.8571 22.9287 11.4286 20.0001 11.4286C15.2859 11.4286 11.4287 15.2857 11.4287 20H12.8573C12.8573 16.0714 16.0716 12.8571 20.0001 12.8571C22.5716 12.8571 24.9287 14.2143 26.2144 16.4286H24.2859V17.8571H27.143C27.9287 17.8571 28.5716 17.2143 28.5716 16.4286V13.5714H27.143Z" fill="white"/>
<path d="M20.286 19.2857H19.286V18.2857H20.2146C20.5003 18.2857 20.7146 18.5 20.7146 18.7857C20.7146 19.0714 20.5003 19.2857 20.286 19.2857ZM20.5003 20.4286H19.286V21.7143H20.5003C20.8574 21.7143 21.1431 21.4286 21.1431 21.0714C21.1431 20.7143 20.8574 20.4286 20.5003 20.4286ZM24.6431 20C24.6431 22.5714 22.5717 24.6429 20.0003 24.6429C17.4289 24.6429 15.3574 22.5714 15.3574 20C15.3574 17.4286 17.4289 15.3571 20.0003 15.3571C22.5717 15.3571 24.6431 17.4286 24.6431 20ZM22.286 21.0714C22.286 20.5714 21.9289 20 21.5003 19.7857C21.7146 19.5 21.786 19.2143 21.786 18.8571C21.786 18.0714 21.2146 17.4286 20.5003 17.2143V16.4286H19.3574V17.1429H18.2146V22.8571H19.4289V23.5714H20.5717V22.8571H20.7146C21.6431 22.7143 22.286 22 22.286 21.0714Z" fill="white"/>
</g>
<defs>
<linearGradient id="paint0_linear_203_2394" x1="9.76188" y1="39.1034" x2="25.5235" y2="-1.96217" gradientUnits="userSpaceOnUse">
<stop stop-color="#427DFF"/>
<stop offset="0.14" stop-color="#7023FF"/>
<stop offset="0.5" stop-color="#174DBA"/>
<stop offset="0.72" stop-color="#8A6EFF"/>
<stop offset="0.94" stop-color="#52B4FF"/>
<stop offset="1" stop-color="#8A6EFF"/>
</linearGradient>
<clipPath id="clip0_203_2394">
<rect width="17.1429" height="17.1429" fill="white" transform="translate(11.4287 11.4286)"/>
</clipPath>
</defs>
</svg>
