<svg width="16" height="16" viewBox="0 0 16 16" fill="none" xmlns="http://www.w3.org/2000/svg">
<g opacity="0.5" clip-path="url(#clip0_65_1368)">
<path d="M8.66667 0H7.33333C6.6 0 6 0.6 6 1.33333V16H10V1.33333C10 0.6 9.4 0 8.66667 0ZM8.66667 14.6667H7.33333V1.33333H8.66667V14.6667ZM14.6667 4H13.3333C12.6 4 12 4.6 12 5.33333V16H16V5.33333C16 4.6 15.4 4 14.6667 4ZM14.6667 14.6667H13.3333V5.33333H14.6667V14.6667ZM2.66667 8H1.33333C0.6 8 0 8.6 0 9.33333V16H4V9.33333C4 8.6 3.4 8 2.66667 8ZM2.66667 14.6667H1.33333V9.33333H2.66667V14.6667Z" fill="#001D34"/>
</g>
<defs>
<clipPath id="clip0_65_1368">
<rect width="16" height="16" fill="white"/>
</clipPath>
</defs>
</svg>
