<svg width="16" height="16" viewBox="0 0 16 16" fill="none" xmlns="http://www.w3.org/2000/svg">
<g opacity="0.5" clip-path="url(#clip0_65_1357)">
<path d="M2 14.6507C1.82319 14.6507 1.65362 14.5804 1.5286 14.4554C1.40357 14.3304 1.33333 14.1608 1.33333 13.984V0H0V13.984C0 14.5144 0.210714 15.0231 0.585786 15.3982C0.960859 15.7733 1.46957 15.984 2 15.984H16V14.6507H2Z" fill="#001D34"/>
<path d="M4.66683 8H3.3335V12.6667H4.66683V8Z" fill="#001D34"/>
<path d="M7.99984 6.66675H6.6665V12.6667H7.99984V6.66675Z" fill="#001D34"/>
<path d="M11.3333 8.66675H10V12.6667H11.3333V8.66675Z" fill="#001D34"/>
<path d="M14.6668 6H13.3335V12.6667H14.6668V6Z" fill="#001D34"/>
<path d="M7.33348 2.94265L10.6668 6.27598L15.8048 1.13798L14.8621 0.195312L10.6668 4.39065L7.33348 1.05731L3.52881 4.86198L4.47148 5.80465L7.33348 2.94265Z" fill="#001D34"/>
</g>
<defs>
<clipPath id="clip0_65_1357">
<rect width="16" height="16" fill="white"/>
</clipPath>
</defs>
</svg>
