<svg width="24" height="25" viewBox="0 0 24 25" fill="none" xmlns="http://www.w3.org/2000/svg">
<g clip-path="url(#clip0_314_2417)">
<path d="M16.298 8.788L17.702 10.213L11.909 15.92C11.522 16.307 11.013 16.5 10.502 16.5C9.991 16.5 9.477 16.305 9.086 15.915L6.304 13.219L7.697 11.782L10.49 14.489L16.298 8.788ZM24 12.5C24 19.117 18.617 24.5 12 24.5C5.383 24.5 0 19.117 0 12.5C0 5.883 5.383 0.5 12 0.5C18.617 0.5 24 5.883 24 12.5ZM22 12.5C22 6.986 17.514 2.5 12 2.5C6.486 2.5 2 6.986 2 12.5C2 18.014 6.486 22.5 12 22.5C17.514 22.5 22 18.014 22 12.5Z" fill="white"/>
</g>
<defs>
<clipPath id="clip0_314_2417">
<rect width="24" height="24" fill="white" transform="translate(0 0.5)"/>
</clipPath>
</defs>
</svg>
