<svg width="16" height="16" viewBox="0 0 16 16" fill="none" xmlns="http://www.w3.org/2000/svg">
<g opacity="0.8" clip-path="url(#clip0_65_675)">
<path d="M10.6 15.9333C10.4 15.9333 10.2 16 10 16H2C0.866667 16 0 15.1333 0 14V1.33333H3.46667C3.73333 0.533333 4.46667 0 5.33333 0H6.66667C7.53333 0 8.26667 0.533333 8.53333 1.33333H12V6.66667H10.6667V2.66667H7.33333V2C7.33333 1.6 7.06667 1.33333 6.66667 1.33333H5.33333C4.93333 1.33333 4.66667 1.6 4.66667 2V2.66667H1.33333V14C1.33333 14.4 1.6 14.6667 2 14.6667H9.6C9.8 15.1333 10.1333 15.6 10.6 15.9333ZM14.4667 11.5333L12.4667 11.2C12.2 11.1333 12 10.9333 12 10.6667C12 10.2667 12.2667 10 12.6667 10H14C14.4 10 14.6667 10.2667 14.6667 10.6667H16C16 9.53333 15.1333 8.66667 14 8.66667V8H12.6667V8.66667C11.5333 8.66667 10.6667 9.53333 10.6667 10.6667C10.6667 11.6 11.3333 12.3333 12.2 12.4667L14.2 12.8C14.4667 12.8667 14.6 13.0667 14.6 13.3333C14.6 13.7333 14.3333 14 13.9333 14H12.6C12.2 14 11.9333 13.7333 11.9333 13.3333H10.6C10.6 14.4667 11.4667 15.3333 12.6 15.3333V16H13.9333V15.3333C15.0667 15.3333 15.9333 14.4667 15.9333 13.3333C16 12.4 15.3333 11.6667 14.4667 11.5333ZM5.73333 4.2L6.66667 5.13333L4.8 7C4.6 7.2 4.33333 7.33333 4.06667 7.33333C3.8 7.33333 3.53333 7.2 3.33333 7L2.2 5.93333L3.13333 5L4.06667 5.93333C4.06667 5.86667 5.73333 4.2 5.73333 4.2ZM5.73333 8.2L6.66667 9.13333L4.8 11C4.6 11.2 4.33333 11.3333 4.06667 11.3333C3.8 11.3333 3.53333 11.2 3.33333 11L2.26667 9.93333L3.2 9L4.13333 9.93333C4.06667 9.86667 5.73333 8.2 5.73333 8.2Z" fill="#001D34"/>
</g>
<defs>
<clipPath id="clip0_65_675">
<rect width="16" height="16" fill="white"/>
</clipPath>
</defs>
</svg>
