<svg width="18" height="18" viewBox="0 0 18 18" fill="none" xmlns="http://www.w3.org/2000/svg">
<g opacity="0.5" clip-path="url(#clip0_315_10653)">
<path d="M18 14.25V2.625C18 1.5915 17.1585 0.75 16.125 0.75H1.875C0.8415 0.75 0 1.5915 0 2.625V14.25H8.25V15.75H4.5V17.25H13.5V15.75H9.75V14.25H18ZM1.5 2.625C1.5 2.418 1.668 2.25 1.875 2.25H16.125C16.332 2.25 16.5 2.418 16.5 2.625V12.75H1.5V2.625ZM15 4.875V8.2335H13.5V6.31125L9.6345 10.1768L7.3845 7.92675L4.179 11.1322L3.1185 10.0717L7.3845 5.80575L9.6345 8.05575L12.4395 5.25075H10.5173V3.75075H13.8757C14.496 3.75075 15.0007 4.2555 15.0007 4.87575L15 4.875Z" fill="white"/>
</g>
<defs>
<clipPath id="clip0_315_10653">
<rect width="18" height="18" fill="white"/>
</clipPath>
</defs>
</svg>
