<svg width="16" height="16" viewBox="0 0 16 16" fill="none" xmlns="http://www.w3.org/2000/svg">
<g clip-path="url(#clip0_31_3448)">
<path opacity="0.5" d="M13.3333 5.33333C14.804 5.33333 16 4.13733 16 2.66667C16 1.196 14.804 0 13.3333 0C11.8627 0 10.6667 1.196 10.6667 2.66667C10.6667 4.13733 11.8627 5.33333 13.3333 5.33333ZM13.3333 1.33333C14.0687 1.33333 14.6667 1.93133 14.6667 2.66667C14.6667 3.402 14.0687 4 13.3333 4C12.598 4 12 3.402 12 2.66667C12 1.93133 12.598 1.33333 13.3333 1.33333ZM14.6667 11.9027C14.6667 11.9727 14.5853 12.0207 14.5133 11.9853L11.5353 9.99933H5.33333V2C5.33333 1.63267 5.63267 1.33333 6 1.33333H9.566C9.742 0.836 10.0127 0.384667 10.358 0H6C4.89733 0 4 0.897333 4 2V2.66667H2C0.897333 2.66667 0 3.564 0 4.66667V14.5693C0 15.0987 0.29 15.5827 0.756 15.832C0.968 15.946 1.20067 16 1.43267 16C1.76267 16 1.98667 15.9213 2.226 15.762L4.868 14H11.9993V11.912L13.7733 13.0947C14.0133 13.2547 14.2893 13.3353 14.5667 13.3353C14.7987 13.3353 15.0307 13.2787 15.2433 13.1647C15.71 12.9153 15.9993 12.4313 15.9993 11.902V5.642C15.6147 5.98733 15.1633 6.258 14.666 6.434L14.6667 11.9027ZM4.46467 12.6667L1.48667 14.6527C1.42533 14.688 1.33333 14.6567 1.33333 14.57V4.66667C1.33333 4.29933 1.63267 4 2 4H4V11.3333H10.6667V12.6667H4.46467Z" fill="white"/>
</g>
<defs>
<clipPath id="clip0_31_3448">
<rect width="16" height="16" fill="white"/>
</clipPath>
</defs>
</svg>
