<svg width="16" height="16" viewBox="0 0 16 16" fill="none" xmlns="http://www.w3.org/2000/svg">
<g opacity="0.5" clip-path="url(#clip0_19_148)">
<path d="M2 14.6507C1.82319 14.6507 1.65362 14.5804 1.5286 14.4554C1.40357 14.3304 1.33333 14.1608 1.33333 13.984V0H0V13.984C0 14.5144 0.210714 15.0231 0.585786 15.3982C0.960859 15.7733 1.46957 15.984 2 15.984H16V14.6507H2Z" fill="white"/>
<path d="M4.66683 8H3.3335V12.6667H4.66683V8Z" fill="white"/>
<path d="M7.99984 6.66666H6.6665V12.6667H7.99984V6.66666Z" fill="white"/>
<path d="M11.3333 8.66666H10V12.6667H11.3333V8.66666Z" fill="white"/>
<path d="M14.6668 6H13.3335V12.6667H14.6668V6Z" fill="white"/>
<path d="M7.33348 2.94268L10.6668 6.27601L15.8048 1.13801L14.8621 0.195343L10.6668 4.39068L7.33348 1.05734L3.52881 4.86201L4.47148 5.80468L7.33348 2.94268Z" fill="white"/>
</g>
<defs>
<clipPath id="clip0_19_148">
<rect width="16" height="16" fill="white"/>
</clipPath>
</defs>
</svg>
