<svg width="16" height="16" viewBox="0 0 16 16" fill="none" xmlns="http://www.w3.org/2000/svg">
<g opacity="0.5" clip-path="url(#clip0_21_194)">
<path d="M15.0333 6.69133L15.976 7.634L10 13.6093L6.66667 10.276L2.276 14.6667H4.66667V16H1.33333C0.598 16 0 15.402 0 14.6667V11.3333H1.33333V13.724L6.66667 8.39067L10 11.724L15.0333 6.69133ZM14.6667 0H11.3333V1.33333H13.724L9.33333 5.724L6 2.39067L0.05 8.34067L0.992667 9.28333L6 4.276L9.33333 7.60933L14.6667 2.276V4.66667H16V1.33333C16 0.598 15.402 0 14.6667 0Z" fill="white"/>
</g>
<defs>
<clipPath id="clip0_21_194">
<rect width="16" height="16" fill="white"/>
</clipPath>
</defs>
</svg>
