<svg width="16" height="16" viewBox="0 0 16 16" fill="none" xmlns="http://www.w3.org/2000/svg">
<g opacity="0.5">
<path d="M14.3333 7.33333H11.6667C11.5527 7.33333 11.4413 7.34533 11.3333 7.36733V3.66667C11.3333 2.74733 10.586 2 9.66667 2H6.33333C5.414 2 4.66667 2.74733 4.66667 3.66667V6.034C4.55867 6.012 4.44733 6 4.33333 6H1.66667C0.747333 6 0 6.74733 0 7.66667V14H16V9C16 8.08067 15.2527 7.33333 14.3333 7.33333ZM1.33333 7.66667C1.33333 7.48333 1.48333 7.33333 1.66667 7.33333H4.33333C4.51667 7.33333 4.66667 7.48333 4.66667 7.66667V12.6667H1.33333V7.66667ZM6 3.66667C6 3.48333 6.15 3.33333 6.33333 3.33333H9.66667C9.85 3.33333 10 3.48333 10 3.66667V12.6667H6V3.66667ZM14.6667 12.6667H11.3333V9C11.3333 8.81667 11.4833 8.66667 11.6667 8.66667H14.3333C14.5167 8.66667 14.6667 8.81667 14.6667 9V12.6667Z" fill="white"/>
</g>
</svg>
