<svg width="16" height="16" viewBox="0 0 16 16" fill="none" xmlns="http://www.w3.org/2000/svg">
<g opacity="0.5" clip-path="url(#clip0_65_1374)">
<path d="M15.3447 5.85667C14.948 5.49533 14.438 5.30467 13.8993 5.33533C13.3633 5.36 12.87 5.59267 12.5087 5.98933L10.3647 8.34533C9.99733 7.73867 9.33133 7.33267 8.572 7.33267H2C0.897333 7.33267 0 8.23 0 9.33267V13.9993C0 15.102 0.897333 15.9993 2 15.9993H8.96533L15.4907 8.676C16.2193 7.85867 16.154 6.594 15.3447 5.85667ZM14.4953 7.78933L8.368 14.6667H2C1.63267 14.6667 1.33333 14.3673 1.33333 14V9.33333C1.33333 8.966 1.63267 8.66667 2 8.66667H8.572C8.992 8.66667 9.33333 9.008 9.33333 9.428C9.33333 9.804 9.052 10.1287 8.67933 10.182L5.23867 10.6733L5.42733 11.9927L8.868 11.5013C9.65133 11.3893 10.2873 10.8427 10.544 10.1287L13.4947 6.886C13.616 6.75267 13.7813 6.67533 13.9613 6.66667C14.14 6.664 14.314 6.72067 14.4467 6.84133C14.7187 7.08933 14.74 7.514 14.4953 7.78867V7.78933ZM5.99867 6H4.66533L4.66667 0H6L5.99867 6ZM8.66533 6H7.332L7.33333 1.33267H8.66667L8.66533 6ZM3.332 6H1.99867L2 2.666H3.33333L3.332 6Z" fill="#001D34"/>
</g>
<defs>
<clipPath id="clip0_65_1374">
<rect width="16" height="16" fill="white"/>
</clipPath>
</defs>
</svg>
