<svg width="24" height="24" viewBox="0 0 24 24" fill="none" xmlns="http://www.w3.org/2000/svg">
<g clip-path="url(#clip0_203_1763)">
<path d="M2 21V3C2 2.73478 2.10536 2.48043 2.29289 2.29289C2.48043 2.10536 2.73478 2 3 2H8V0H3C2.20435 0 1.44129 0.31607 0.87868 0.87868C0.31607 1.44129 0 2.20435 0 3L0 21C0 21.7956 0.31607 22.5587 0.87868 23.1213C1.44129 23.6839 2.20435 24 3 24H8V22H3C2.73478 22 2.48043 21.8946 2.29289 21.7071C2.10536 21.5196 2 21.2652 2 21Z" fill="white"/>
<path d="M24.0004 13V11L7.55638 11.031L11.8794 6.70703L10.4634 5.29303L5.87738 9.87903C5.31497 10.4416 4.99902 11.2045 4.99902 12C4.99902 12.7955 5.31497 13.5584 5.87738 14.121L10.4634 18.707L11.8774 17.293L7.61438 13.03L24.0004 13Z" fill="white"/>
</g>
<defs>
<clipPath id="clip0_203_1763">
<rect width="24" height="24" fill="white"/>
</clipPath>
</defs>
</svg>
