<svg width="18" height="18" viewBox="0 0 18 18" fill="none" xmlns="http://www.w3.org/2000/svg">
<g opacity="0.5" clip-path="url(#clip0_315_10682)">
<path d="M17.0721 7.67393L13.3596 3.96143L12.2999 5.02493L15.5249 8.24993H4.96265V9.74993H15.5249L12.2999 12.9749L13.3604 14.0354L17.0729 10.3229C17.2471 10.1488 17.3852 9.94209 17.4795 9.71457C17.5737 9.48705 17.6222 9.2432 17.6222 8.99693C17.6222 8.75066 17.5737 8.5068 17.4795 8.27928C17.3852 8.05176 17.2471 7.84504 17.0729 7.67093L17.0721 7.67393Z" fill="white"/>
<path d="M7.857 15.75C7.857 15.9489 7.77798 16.1397 7.63733 16.2803C7.49668 16.421 7.30591 16.5 7.107 16.5H2.25C2.05109 16.5 1.86032 16.421 1.71967 16.2803C1.57902 16.1397 1.5 15.9489 1.5 15.75V2.25C1.5 2.05109 1.57902 1.86032 1.71967 1.71967C1.86032 1.57902 2.05109 1.5 2.25 1.5H7.107C7.30591 1.5 7.49668 1.57902 7.63733 1.71967C7.77798 1.86032 7.857 2.05109 7.857 2.25V6.24975H9.357V2.25C9.357 1.65326 9.11995 1.08097 8.69799 0.65901C8.27603 0.237053 7.70374 0 7.107 0L2.25 0C1.65326 0 1.08097 0.237053 0.65901 0.65901C0.237053 1.08097 0 1.65326 0 2.25L0 15.75C0 16.3467 0.237053 16.919 0.65901 17.341C1.08097 17.7629 1.65326 18 2.25 18H7.107C7.70374 18 8.27603 17.7629 8.69799 17.341C9.11995 16.919 9.357 16.3467 9.357 15.75V11.7502H7.857V15.75Z" fill="white"/>
</g>
<defs>
<clipPath id="clip0_315_10682">
<rect width="18" height="18" fill="white"/>
</clipPath>
</defs>
</svg>
