<svg width="16" height="16" viewBox="0 0 16 16" fill="none" xmlns="http://www.w3.org/2000/svg">
<path d="M15.9954 8.98018V7.0196H13.0258C12.8924 6.3347 12.6232 5.69817 12.2461 5.14005L14.3465 3.03962L12.9604 1.65349L10.8593 3.75392C10.3012 3.37684 9.66467 3.10759 8.98042 2.97427V0.00463867H7.01984V2.97427C6.33495 3.10759 5.69841 3.37684 5.1403 3.75392L3.03986 1.65349L1.65373 3.03962L3.75417 5.14005C3.37708 5.69817 3.10783 6.3347 2.97451 7.0196H0.00488281V8.98018H2.97451C3.10783 9.66442 3.37708 10.301 3.75417 10.8591L1.65373 12.9602L3.03986 14.3463L5.1403 12.2459C5.69841 12.6229 6.33495 12.8922 7.01984 13.0255V15.9951H8.98042V13.0255C9.66467 12.8922 10.3012 12.6229 10.8593 12.2459L12.9604 14.3463L14.3465 12.9602L12.2461 10.8591C12.6232 10.301 12.8924 9.66442 13.0258 8.98018H15.9954ZM8.00013 11.1597C6.25783 11.1597 4.83968 9.74219 4.83968 7.99989C4.83968 6.25759 6.25783 4.83943 8.00013 4.83943C9.74244 4.83943 11.1599 6.25759 11.1599 7.99989C11.1599 9.74219 9.74244 11.1597 8.00013 11.1597Z" fill="white"/>
</svg>
