<svg width="24" height="24" viewBox="0 0 24 24" fill="none" xmlns="http://www.w3.org/2000/svg">
<g clip-path="url(#clip0_65_627)">
<path d="M9 12C12.309 12 15 9.309 15 6C15 2.691 12.309 0 9 0C5.691 0 3 2.691 3 6C3 9.309 5.691 12 9 12ZM9 2C11.206 2 13 3.794 13 6C13 8.206 11.206 10 9 10C6.794 10 5 8.206 5 6C5 3.794 6.794 2 9 2ZM20.268 12.732C20.854 13.318 20.854 14.268 20.268 14.853C19.682 15.439 18.732 15.439 18.147 14.853C17.562 14.267 17.561 13.317 18.147 12.732C18.733 12.147 19.683 12.146 20.268 12.732ZM22.389 10.611C21.351 9.572 19.969 9 18.5 9C17.031 9 15.649 9.572 14.611 10.611C13.166 12.056 12.655 14.148 13.257 16.108V16.501H11.007L10.992 18.501H8.995L9.019 23.987H13.963L17.975 19.974C19.594 20.123 21.219 19.559 22.388 18.389C23.427 17.35 23.999 15.969 23.999 14.5C23.999 13.031 23.428 11.649 22.389 10.611ZM20.975 16.975C20.348 17.602 19.519 17.996 18.652 17.996C17.616 17.996 17.295 17.827 17.295 17.827L13.137 21.985H11.012L11.005 20.5H12.979L12.994 18.5H15.259V15.784C14.732 14.327 15.084 12.968 16.027 12.025C17.349 10.703 19.654 10.703 20.976 12.025C21.637 12.686 22.001 13.566 22.001 14.5C22.001 15.434 21.636 16.313 20.975 16.975ZM9 16H5C3.346 16 2 17.346 2 19V24H0V19C0 16.243 2.243 14 5 14H9V16Z" fill="white"/>
</g>
<defs>
<clipPath id="clip0_65_627">
<rect width="24" height="24" fill="white"/>
</clipPath>
</defs>
</svg>
